<svg height="512pt" viewBox="-5 0 511 512" width="512pt" xmlns="http://www.w3.org/2000/svg"><path d="m77.972656 216.804688 171.460938-146.964844 90.367187 77.457031 9.773438-11.402344-100.140625-85.832031-228.910156 196.207031 9.773437 11.402344 32.660156-27.992187v282.320312h123.21875v-15.019531h-108.203125zm0 0"/><path d="m250.683594 0-78.863282 67.597656 9.773438 11.402344 69.089844-59.21875 240.410156 206.066406 9.773438-11.402344zm0 0"/><path d="m.5 214.449219 159.925781-137.074219 9.773438 11.40625-159.925781 137.070312zm0 0"/><path d="m303.246094 453.929688v-65.078126h65.082031v-105.128906h-65.082031v-65.078125h-105.125v65.078125h-65.078125v105.128906h65.078125v65.078126zm-155.1875-80.097657v-75.089843h65.078125v-65.082032h75.09375v65.082032h65.078125v75.089843h-65.078125v65.078125h-75.09375v-65.078125zm0 0"/><path d="m351.203125 157.070312 72.191406 61.878907v278.03125h-222.199219v15.019531h237.21875v-280.179688l32.65625 27.992188 9.773438-11.402344-119.867188-102.742187zm0 0"/><path d="m369.570312 207.191406 9.773438-11.402344 11.40625 9.773438-9.777344 11.40625zm0 0"/><path d="m290.84375 139.753906 9.773438-11.402344 44.496093 38.144532-9.773437 11.402344zm0 0"/><path d="m346.765625 187.648438 9.773437-11.40625 11.402344 9.773437-9.773437 11.40625zm0 0"/></svg>