<svg height="512pt" viewBox="0 0 512 512" width="512pt" xmlns="http://www.w3.org/2000/svg"><path d="m0 135.777344h15.015625v376.222656h-15.015625zm0 0"/><path d="m95.09375 372.863281v-310.300781c0-4.140625 3.367188-7.507812 7.507812-7.507812h152.003907v-15.015626h-152.003907c-12.421874 0-22.523437 10.101563-22.523437 22.523438v37.535156h-25.023437v-72.570312c0-15.179688-12.347657-27.527344-27.527344-27.527344-15.179688 0-27.527344 12.347656-27.527344 27.527344v93.234375h15.015625v-93.234375c0-6.898438 5.613281-12.511719 12.511719-12.511719 6.898437 0 12.511718 5.613281 12.511718 12.511719v484.472656h15.015626v-176.671875h25.023437v37.535156c0 12.421875 10.101563 22.523438 22.523437 22.523438h71.066407v-15.015625h-71.066407c-4.140624 0-7.507812-3.367188-7.507812-7.507813zm-15.015625-52.550781h-25.023437v-205.199219h25.023437zm0 0"/><path d="m488.976562 40.039062h-219.355468v15.015626h219.355468c4.140626 0 7.507813 3.367187 7.507813 7.507812v57.339844h15.015625v-57.339844c0-12.421875-10.101562-22.523438-22.523438-22.523438zm0 0"/><path d="m496.484375 372.863281c0 4.140625-3.367187 7.507813-7.507813 7.507813h-300.292968v15.015625h300.292968c12.421876 0 22.523438-10.101563 22.523438-22.523438v-237.945312h-15.015625zm0 0"/><path d="m243.238281 100.097656v65.0625h-65.0625v105.105469h65.0625v65.0625h105.101563v-65.0625h65.0625v-105.105469h-65.0625v-65.0625zm155.152344 80.078125v75.074219h-65.066406v65.0625h-75.070313v-65.0625h-65.066406v-75.074219h65.066406v-65.0625h75.070313v65.0625zm0 0"/><path d="m481.46875 70.070312h-47.546875v15.011719h32.535156v32.53125h15.011719zm0 0"/><path d="m466.457031 132.628906h15.011719v15.015625h-15.011719zm0 0"/><path d="m403.894531 70.070312h15.015625v15.011719h-15.015625zm0 0"/><path d="m110.109375 365.355469h47.542969v-15.011719h-32.53125v-32.535156h-15.011719zm0 0"/><path d="m110.109375 287.78125h15.011719v15.015625h-15.011719zm0 0"/><path d="m172.667969 350.34375h15.015625v15.011719h-15.015625zm0 0"/></svg>