<svg height="512pt" viewBox="0 -38 512 511" width="512pt" xmlns="http://www.w3.org/2000/svg"><path d="m301.753906 39.742188c15.609375-15.613282 36.367188-24.210938 58.449219-24.210938s42.839844 8.597656 58.453125 24.210938c15.609375 15.609374 24.210938 36.371093 24.210938 58.449218s-8.601563 42.835938-24.214844 58.449219l-60.476563 60.476563 10.628907 10.628906 60.476562-60.476563c18.453125-18.453125 28.613281-42.988281 28.613281-69.078125 0-26.09375-10.160156-50.628906-28.613281-69.078125-18.449219-18.453125-42.984375-28.613281-69.078125-28.613281s-50.625 10.160156-69.078125 28.613281l-50.894531 50.894531 10.628906 10.625zm0 0"/><path d="m184.5 156.992188 70.753906 70.753906 10.628906-10.625-70.753906-70.757813 45.101563-45.101562-10.628907-10.625-126.484374 126.484375 10.628906 10.625zm0 0"/><path d="m414.308594 240.96875h-66.414063v15.03125h66.414063c45.578125 0 82.660156 37.082031 82.660156 82.660156 0 45.582032-37.082031 82.660156-82.660156 82.660156h-150.792969v-102.699218h-15.03125v102.699218h-133.332031v15.03125h299.15625c53.867187 0 97.691406-43.824218 97.691406-97.691406 0-53.867187-43.824219-97.691406-97.691406-97.691406zm0 0"/><path d="m15.03125 338.660156c0-45.578125 37.078125-82.660156 82.660156-82.660156h150.792969v47.59375h15.03125v-47.59375h69.347656v-15.03125h-235.171875c-53.867187 0-97.691406 43.824219-97.691406 97.691406 0 53.867188 43.824219 97.691406 97.691406 97.691406h2.433594v-15.03125h-2.433594c-45.582031 0-82.660156-37.078124-82.660156-82.660156zm0 0"/><path d="m41.082031 324.632812c0 15.195313 12.359375 27.554688 27.550781 27.554688 15.195313 0 27.554688-12.359375 27.554688-27.554688 0-15.195312-12.359375-27.554687-27.554688-27.554687-15.191406 0-27.550781 12.359375-27.550781 27.554687zm40.078125 0c0 6.90625-5.621094 12.523438-12.527344 12.523438s-12.523437-5.617188-12.523437-12.523438 5.617187-12.523437 12.523437-12.523437 12.527344 5.617187 12.527344 12.523437zm0 0"/><path d="m197.386719 303.59375c0-15.195312-12.363281-27.554688-27.554688-27.554688-15.195312 0-27.554687 12.359376-27.554687 27.554688 0 15.191406 12.359375 27.550781 27.554687 27.550781 15.191407 0 27.554688-12.359375 27.554688-27.550781zm-27.554688 12.523438c-6.90625 0-12.523437-5.617188-12.523437-12.523438 0-6.910156 5.617187-12.527344 12.523437-12.527344s12.523438 5.617188 12.523438 12.527344c0 6.90625-5.617188 12.523438-12.523438 12.523438zm0 0"/><path d="m206.902344 411.300781c15.195312 0 27.554687-12.359375 27.554687-27.550781 0-15.195312-12.359375-27.554688-27.554687-27.554688-15.191406 0-27.550782 12.359376-27.550782 27.554688 0 15.191406 12.359376 27.550781 27.550782 27.550781zm0-40.078125c6.910156 0 12.527344 5.621094 12.527344 12.527344s-5.617188 12.523438-12.527344 12.523438c-6.90625 0-12.523438-5.617188-12.523438-12.523438s5.617188-12.527344 12.523438-12.527344zm0 0"/><path d="m153.300781 371.726562c0-15.195312-12.363281-27.554687-27.554687-27.554687-15.195313 0-27.554688 12.359375-27.554688 27.554687 0 15.191407 12.359375 27.550782 27.554688 27.550782 15.191406 0 27.554687-12.359375 27.554687-27.550782zm-40.078125 0c0-6.90625 5.617188-12.527343 12.523438-12.527343s12.523437 5.621093 12.523437 12.527343-5.617187 12.523438-12.523437 12.523438-12.523438-5.617188-12.523438-12.523438zm0 0"/><path d="m460.355469 313.246094 13.144531-7.285156c-11.949219-21.546876-34.625-34.933594-59.191406-34.933594h-6.011719v15.03125h6.011719c19.105468 0 36.746094 10.417968 46.046875 27.1875zm0 0"/><path d="m348.179688 271.027344h15.03125v15.03125h-15.03125zm0 0"/><path d="m378.238281 271.027344h15.03125v15.03125h-15.03125zm0 0"/><path d="m252.203125 146.089844 15.027344-32.0625 13.609375 6.378906-15.027344 32.0625zm0 0"/><path d="m279.011719 190.566406 4.066406-14.46875 32.066406 9.015625-4.070312 14.46875zm0 0"/><path d="m305.597656 90.175781h15.027344v34.066407h-15.027344zm0 0"/><path d="m357.113281 118.761719 14.15625-5.054688 10.015625 28.050781-14.152344 5.054688zm0 0"/><path d="m383.777344 71.589844 15.003906-.910156 2.003906 33.066406-15.003906.910156zm0 0"/><path d="m329.839844 62.980469 28.054687-9.015625 4.597657 14.308594-28.054688 9.015624zm0 0"/><path d="m326.542969 157.863281 13.234375-7.125 14.027344 26.054688-13.234376 7.125zm0 0"/></svg>