<svg height="512pt" viewBox="-103 0 512 512" width="512pt" xmlns="http://www.w3.org/2000/svg"><path d="m290.566406 418.816406h-67.632812v15.03125h67.632812v30.558594c0 17.957031-14.605468 32.5625-32.5625 32.5625h-210.410156c-17.957031 0-32.5625-14.605469-32.5625-32.5625v-30.558594h192.875v-15.03125h-192.875v-31.703125h-15.03125v77.292969c0 26.242188 21.351562 47.59375 47.59375 47.59375h210.410156c26.242188 0 47.59375-21.351562 47.59375-47.59375v-180.921875h-15.03125zm0 0"/><path d="m258.003906 140.273438h-7.515625v-25.046876h20.039063v-115.226562h-42.582032v15.03125h27.554688v85.164062h-147.789062v15.03125h127.75v25.046876h-165.324219v-25.046876h22.542969v-15.03125h-42.582032v-85.164062h162.816406v-15.03125h-177.84375v115.226562h20.039063v25.046876h-7.515625c-26.242188 0-47.59375 21.351562-47.59375 47.59375v184.214843h15.03125v-138.625h275.535156v34.996094h15.03125v-80.585937c0-26.242188-21.351562-47.59375-47.59375-47.59375zm32.5625 78.152343h-275.535156v-30.558593c0-17.957032 14.605469-32.5625 32.5625-32.5625h210.410156c17.957032 0 32.5625 14.605468 32.5625 32.5625zm0 0"/><path d="m125.246094 253.496094v30.058594h-30.058594v55.105468h30.058594v30.058594h55.105468v-30.058594h30.058594v-55.105468h-30.058594v-30.058594zm70.136718 45.085937v25.050781h-30.058593v30.058594h-25.050781v-30.058594h-30.058594v-25.050781h30.058594v-30.058593h25.050781v30.058593zm0 0"/><path d="m75.148438 32.5625h15.027343v50.097656h-15.027343zm0 0"/><path d="m121.90625 32.5625h15.027344v50.097656h-15.027344zm0 0"/><path d="m168.664062 32.5625h15.027344v50.097656h-15.027344zm0 0"/><path d="m215.421875 32.5625h15.027344v50.097656h-15.027344zm0 0"/><path d="m115.226562 383.75h15.027344v15.027344h-15.027344zm0 0"/><path d="m175.34375 383.75h15.027344v15.027344h-15.027344zm0 0"/><path d="m145.285156 383.75h15.027344v15.027344h-15.027344zm0 0"/></svg>