<svg height="512pt" viewBox="-58 0 511 512" width="512pt" xmlns="http://www.w3.org/2000/svg"><path d="m69.925781 359.203125h-15.03125v152.796875h202.898438v-15.03125h-187.867188zm0 0"/><path d="m310.394531 37.574219v94.898437h15.027344v-94.898437c0-20.71875-16.851563-37.574219-37.570313-37.574219h-128.394531v15.03125h128.394531c12.429688 0 22.542969 10.109375 22.542969 22.542969zm0 0"/><path d="m137.558594 40.078125c-17.957032 0-32.566406 14.609375-32.566406 32.5625 0 17.957031 14.609374 32.566406 32.566406 32.566406 17.953125 0 32.5625-14.609375 32.5625-32.566406 0-17.953125-14.609375-32.5625-32.5625-32.5625zm0 50.097656c-9.667969 0-17.535156-7.867187-17.535156-17.535156s7.867187-17.53125 17.535156-17.53125c9.664062 0 17.53125 7.863281 17.53125 17.53125s-7.867188 17.535156-17.53125 17.535156zm0 0"/><path d="m257.792969 40.078125c-17.957031 0-32.566407 14.609375-32.566407 32.5625 0 17.957031 14.609376 32.566406 32.566407 32.566406 17.953125 0 32.5625-14.609375 32.5625-32.566406 0-17.953125-14.609375-32.5625-32.5625-32.5625zm0 50.097656c-9.667969 0-17.535157-7.867187-17.535157-17.535156s7.867188-17.53125 17.535157-17.53125 17.53125 7.863281 17.53125 17.53125-7.863281 17.535156-17.53125 17.535156zm0 0"/><path d="m137.558594 130.253906c-17.957032 0-32.566406 14.609375-32.566406 32.5625 0 17.957032 14.609374 32.566406 32.566406 32.566406 17.953125 0 32.5625-14.609374 32.5625-32.566406 0-17.953125-14.609375-32.5625-32.5625-32.5625zm0 50.097656c-9.667969 0-17.535156-7.867187-17.535156-17.535156 0-9.667968 7.867187-17.53125 17.535156-17.53125 9.664062 0 17.53125 7.863282 17.53125 17.53125 0 9.667969-7.867188 17.535156-17.53125 17.535156zm0 0"/><path d="m257.792969 130.253906c-17.957031 0-32.566407 14.609375-32.566407 32.5625 0 17.957032 14.609376 32.566406 32.566407 32.566406 17.953125 0 32.5625-14.609374 32.5625-32.566406 0-17.953125-14.609375-32.5625-32.5625-32.5625zm0 50.097656c-9.667969 0-17.535157-7.867187-17.535157-17.535156 0-9.667968 7.867188-17.53125 17.535157-17.53125s17.53125 7.863282 17.53125 17.53125c0 9.667969-7.863281 17.535156-17.53125 17.535156zm0 0"/><path d="m170.121094 266.519531v30.058594h-30.058594v55.109375h30.058594v30.058594h55.105468v-30.058594h30.058594v-55.109375h-30.058594v-30.058594zm70.136718 45.089844v25.046875h-30.058593v30.058594h-25.050781v-30.058594h-30.058594v-25.046875h30.058594v-30.058594h25.050781v30.058594zm0 0"/><path d="m336.484375 216.421875h-11.0625v-68.917969h-15.027344v68.917969h-225.441406v-178.847656c0-12.433594 10.113281-22.542969 22.542969-22.542969h36.929687v-15.03125h-36.929687c-20.714844 0-37.570313 16.855469-37.570313 37.574219v178.847656h-11.0625l-58.363281 70.871094 11.601562 9.554687 42.792969-51.964844v99.289063h15.03125v-112.71875h255.496094v265.515625h-52.601563v15.03125h67.632813v-267.117188l42.792969 51.964844 11.601562-9.554687zm0 0"/><path d="m117.515625 456.890625h15.03125v15.03125h-15.03125zm0 0"/><path d="m147.578125 456.890625h160.3125v15.03125h-160.3125zm0 0"/><path d="m87.457031 456.890625h15.03125v15.03125h-15.03125zm0 0"/><path d="m190.160156 406.792969h15.027344v15.03125h-15.027344zm0 0"/><path d="m220.21875 406.792969h15.027344v15.03125h-15.027344zm0 0"/><path d="m160.101562 406.792969h15.027344v15.03125h-15.027344zm0 0"/><path d="m190.160156 65.628906h15.027344v15.027344h-15.027344zm0 0"/><path d="m190.160156 35.570312h15.027344v15.027344h-15.027344zm0 0"/><path d="m190.160156 95.6875h15.027344v100.195312h-15.027344zm0 0"/></svg>