<svg height="512pt" viewBox="-78 0 512 512" width="512pt" xmlns="http://www.w3.org/2000/svg"><path d="m15.03125 464.40625v-280.976562h-15.03125v280.976562c0 26.242188 21.351562 47.59375 47.59375 47.59375h116.941406v-15.03125h-116.941406c-17.957031 0-32.5625-14.605469-32.5625-32.5625zm0 0"/><path d="m308.101562 0h-25.046874v15.03125h25.046874c17.957032 0 32.5625 14.605469 32.5625 32.5625v372.871094h15.03125v-372.871094c0-26.242188-21.351562-47.59375-47.59375-47.59375zm0 0"/><path d="m340.664062 464.40625c0 17.957031-14.605468 32.5625-32.5625 32.5625h-128.535156v15.03125h128.535156c26.242188 0 47.59375-21.351562 47.59375-47.59375v-28.914062h-15.03125zm0 0"/><path d="m15.03125 47.59375c0-17.957031 14.605469-32.5625 32.5625-32.5625h220.429688v-15.03125h-220.429688c-26.242188 0-47.59375 21.351562-47.59375 47.59375v120.804688h15.03125zm0 0"/><path d="m136.171875 49.027344c-11.914063-11.914063-31.300781-11.914063-43.214844 0l-43.929687 43.929687c-11.914063 11.914063-11.914063 31.300781 0 43.214844 5.960937 5.957031 13.785156 8.9375 21.609375 8.9375 7.828125 0 15.652343-2.980469 21.609375-8.9375l43.925781-43.925781c11.917969-11.914063 11.917969-31.300782 0-43.21875zm-54.550781 76.519531c-6.054688 6.054687-15.910156 6.054687-21.964844 0s-6.054688-15.910156 0-21.964844l16.648438-16.648437 21.964843 21.964844zm43.925781-43.925781-16.648437 16.648437-21.964844-21.964843 16.648437-16.648438c3.027344-3.027344 7.003907-4.542969 10.980469-4.542969s7.953125 1.515625 10.984375 4.542969c6.054687 6.054688 6.054687 15.910156 0 21.964844zm0 0"/><path d="m263.449219 49.027344-43.925781 43.929687c-11.917969 11.914063-11.917969 31.300781 0 43.214844 5.957031 5.960937 13.78125 8.9375 21.609374 8.9375 7.824219 0 15.648438-2.980469 21.605469-8.9375l43.925781-43.925781c11.917969-11.914063 11.917969-31.300782 0-43.21875-11.914062-11.914063-31.300781-11.914063-43.214843 0zm-11.335938 76.519531c-6.054687 6.054687-15.90625 6.054687-21.964843 0-6.054688-6.054687-6.054688-15.910156 0-21.964844l16.652343-16.648437 21.960938 21.964844zm43.925781-43.925781-16.648437 16.648437-21.964844-21.964843 16.648438-16.648438c3.027343-3.027344 7.003906-4.539062 10.984375-4.539062 3.976562 0 7.953125 1.511718 10.980468 4.539062 6.054688 6.054688 6.054688 15.910156 0 21.964844zm0 0"/><path d="m70.636719 471.90625c7.828125 0 15.652343-2.976562 21.609375-8.933594l43.925781-43.929687c11.917969-11.914063 11.917969-31.300781 0-43.214844-11.914063-11.917969-31.300781-11.917969-43.214844 0l-43.929687 43.925781c-11.914063 11.914063-11.914063 31.300782 0 43.21875 5.960937 5.957032 13.785156 8.933594 21.609375 8.933594zm32.945312-85.453125c3.027344-3.027344 7.003907-4.542969 10.980469-4.542969s7.953125 1.515625 10.984375 4.542969c6.054687 6.054687 6.054687 15.910156 0 21.964844l-16.652344 16.648437-21.960937-21.964844zm-43.925781 43.925781 16.648438-16.648437 21.964843 21.964843-16.648437 16.648438c-6.054688 6.054688-15.910156 6.054688-21.964844 0s-6.054688-15.910156 0-21.964844zm0 0"/><path d="m219.523438 462.972656c5.957031 5.957032 13.78125 8.933594 21.605468 8.933594 7.828125 0 15.652344-2.976562 21.609375-8.933594l43.925781-43.929687c11.917969-11.914063 11.917969-31.300781 0-43.214844-11.914062-11.917969-31.300781-11.917969-43.214843 0l-43.925781 43.925781c-11.917969 11.914063-11.917969 31.300782 0 43.21875zm54.550781-76.519531c3.027343-3.027344 7.003906-4.539063 10.984375-4.539063 3.976562 0 7.953125 1.511719 10.980468 4.539063 6.054688 6.054687 6.054688 15.910156 0 21.964844l-16.648437 16.648437-21.964844-21.964844zm-43.925781 43.925781 16.648437-16.648437 21.964844 21.964843-16.648438 16.648438c-6.054687 6.054688-15.90625 6.054688-21.964843 0-6.054688-6.054688-6.054688-15.910156 0-21.964844zm0 0"/><path d="m114.566406 203.476562c-8.164062 0-15.839844 3.179688-21.609375 8.953126l-43.929687 43.925781c-11.914063 11.914062-11.914063 31.300781 0 43.214843 5.960937 5.960938 13.785156 8.9375 21.609375 8.9375 7.828125 0 15.652343-2.976562 21.609375-8.9375l43.925781-43.925781c11.917969-11.914062 11.917969-31.300781 0-43.214843-5.769531-5.773438-13.445313-8.953126-21.605469-8.953126zm-32.945312 85.46875c-6.058594 6.054688-15.910156 6.054688-21.964844 0-6.054688-6.054687-6.054688-15.910156 0-21.964843l16.648438-16.648438 21.964843 21.964844zm43.925781-43.925781-16.648437 16.648438-21.964844-21.964844 16.648437-16.648437c2.933594-2.933594 6.835938-4.550782 10.984375-4.550782 4.144532 0 8.046875 1.617188 10.980469 4.550782 6.054687 6.054687 6.054687 15.910156 0 21.964843zm0 0"/><path d="m241.128906 308.523438c8.164063 0 15.839844-3.179688 21.609375-8.953126l43.925781-43.925781c11.917969-11.914062 11.917969-31.300781 0-43.214843-11.914062-11.917969-31.300781-11.917969-43.214843 0l-43.925781 43.925781c-11.917969 11.914062-11.917969 31.300781 0 43.214843 5.769531 5.773438 13.445312 8.953126 21.605468 8.953126zm32.945313-85.46875c3.027343-3.027344 7.003906-4.539063 10.984375-4.539063 3.976562 0 7.953125 1.511719 10.980468 4.539063 6.054688 6.054687 6.054688 15.910156 0 21.964843l-16.648437 16.648438-21.964844-21.964844zm-43.925781 43.925781 16.648437-16.648438 21.964844 21.964844-16.648438 16.648437c-2.933593 2.933594-6.835937 4.546876-10.980469 4.546876-4.148437 0-8.050781-1.613282-10.984374-4.546876-6.054688-6.054687-6.054688-15.910156 0-21.964843zm0 0"/><path d="m170.332031 45.589844h15.03125v90.175781h-15.03125zm0 0"/><path d="m170.332031 150.792969h15.03125v15.03125h-15.03125zm0 0"/><path d="m170.332031 376.234375h15.03125v90.175781h-15.03125zm0 0"/><path d="m170.332031 210.910156h15.03125v90.179688h-15.03125zm0 0"/><path d="m170.332031 180.851562h15.03125v15.03125h-15.03125zm0 0"/><path d="m170.332031 316.117188h15.03125v15.03125h-15.03125zm0 0"/><path d="m170.332031 346.175781h15.03125v15.03125h-15.03125zm0 0"/></svg>