<svg height="512pt" viewBox="0 0 512 512" width="512pt" xmlns="http://www.w3.org/2000/svg"><path d="m44.085938 245.480469h55.109374v-55.109375h-55.109374zm15.03125-40.078125h25.046874v25.046875h-25.046874zm0 0"/><path d="m44.085938 325.636719h55.109374v-55.109375h-55.109374zm15.03125-40.078125h25.046874v25.046875h-25.046874zm0 0"/><path d="m44.085938 405.792969h55.109374v-55.109375h-55.109374zm15.03125-40.078125h25.046874v25.046875h-25.046874zm0 0"/><path d="m467.914062 190.371094h-55.109374v55.109375h55.109374zm-15.03125 40.078125h-25.046874v-25.046875h25.046874zm0 0"/><path d="m412.804688 325.636719h55.109374v-55.109375h-55.109374zm15.03125-40.078125h25.046874v25.046875h-25.046874zm0 0"/><path d="m467.914062 350.683594h-55.109374v55.109375h55.109374zm-15.03125 40.078125h-25.046874v-25.046875h25.046874zm0 0"/><path d="m183.359375 325.636719h55.105469v-55.109375h-55.105469zm15.027344-40.078125h25.050781v25.046875h-25.050781zm0 0"/><path d="m273.535156 325.636719h55.105469v-55.109375h-55.105469zm15.027344-40.078125h25.050781v25.046875h-25.050781zm0 0"/><path d="m238.464844 190.371094h-55.105469v55.109375h55.105469zm-15.027344 40.078125h-25.050781v-25.046875h25.050781zm0 0"/><path d="m328.640625 190.371094h-55.105469v55.109375h55.105469zm-15.027344 40.078125h-25.050781v-25.046875h25.050781zm0 0"/><path d="m512 226.941406v-96.6875h-128.25v-130.253906h-71.640625v15.03125h56.609375v481.9375h-50.097656v-85.164062h20.039062v-45.089844h-102.699218v15.03125h87.671874v15.027344h-135.265624v-15.027344h32.5625v-15.03125h-47.589844v45.089844h20.039062v85.164062h-50.097656v-481.9375h153.800781v-15.03125h-168.832031v130.253906h-128.25v270.027344h15.03125v-254.996094h113.21875v351.683594h-113.21875v-81.65625h-15.03125v96.6875h512v-270.027344h-15.03125v254.996094h-113.21875v-351.683594h113.21875v81.65625zm-263.515625 270.027344h-40.078125v-85.164062h40.078125zm55.109375 0h-40.078125v-85.164062h40.078125zm0 0"/><path d="m283.554688 40.078125h-55.109376v30.058594h-30.058593v55.109375h30.058593v30.058594h55.109376v-30.058594h30.058593v-55.109375h-30.058593zm15.027343 45.089844v25.046875h-30.058593v30.058594h-25.046876v-30.058594h-30.058593v-25.046875h30.058593v-30.058594h25.046876v30.058594zm0 0"/><path d="m64.125 456.890625h15.03125v15.03125h-15.03125zm0 0"/><path d="m94.183594 456.890625h15.03125v15.03125h-15.03125zm0 0"/><path d="m34.066406 456.890625h15.03125v15.03125h-15.03125zm0 0"/><path d="m462.902344 456.890625h15.03125v15.03125h-15.03125zm0 0"/><path d="m432.84375 456.890625h15.03125v15.03125h-15.03125zm0 0"/><path d="m402.785156 456.890625h15.03125v15.03125h-15.03125zm0 0"/></svg>