<svg height="512pt" viewBox="0 -18 512 512" width="512pt" xmlns="http://www.w3.org/2000/svg"><path d="m15.03125 225.441406h78.152344v12.523438c0 15.195312 12.359375 27.554687 27.550781 27.554687h20.039063c15.195312 0 27.554687-12.359375 27.554687-27.554687v-12.523438h47.59375v-15.03125h-47.59375v-40.078125h-75.144531v40.078125h-78.152344v-72.640625c0-12.433593 10.109375-22.542969 22.542969-22.542969h365.429687v-15.03125h-29.273437v-32.5625c0-37.292968-30.339844-67.632812-67.632813-67.632812h-9.304687v15.03125h9.304687c29.003906 0 52.601563 23.59375 52.601563 52.601562v32.5625h-25.046875v-32.5625c0-15.195312-12.363282-27.554687-27.554688-27.554687h-100.195312c-15.195313 0-27.554688 12.359375-27.554688 27.554687v32.5625h-25.046875v-32.5625c0-29.007812 23.597657-52.601562 52.601563-52.601562h75.863281v-15.03125h-75.863281c-37.292969 0-67.632813 30.339844-67.632813 67.632812v32.5625h-100.695312c-20.71875 0-37.574219 16.855469-37.574219 37.574219v238.609375h15.03125zm93.179688-40.078125h45.089843v52.601563c0 6.90625-5.621093 12.523437-12.527343 12.523437h-20.039063c-6.90625 0-12.523437-5.617187-12.523437-12.523437zm85.167968-117.730469c0-6.90625 5.617188-12.523437 12.523438-12.523437h100.195312c6.90625 0 12.523438 5.617187 12.523438 12.523437v32.5625h-125.242188zm0 0"/><path d="m474.425781 100.195312h-56.394531v15.03125h56.394531c12.429688 0 22.542969 10.109376 22.542969 22.542969v72.640625h-78.152344v-40.078125h-75.144531v40.078125h-112.722656v15.03125h112.722656v12.523438c0 15.195312 12.359375 27.554687 27.554687 27.554687h20.039063c15.191406 0 27.550781-12.359375 27.550781-27.554687v-12.523438h78.152344v182.855469c0 12.433594-10.113281 22.542969-22.542969 22.542969h-436.851562c-12.433594 0-22.542969-10.109375-22.542969-22.542969v-16.890625h-15.03125v16.890625c0 20.71875 16.855469 37.574219 37.574219 37.574219h436.851562c20.71875 0 37.574219-16.855469 37.574219-37.574219v-270.527344c0-20.71875-16.855469-37.574219-37.574219-37.574219zm-70.636719 137.769532c0 6.90625-5.617187 12.523437-12.523437 12.523437h-20.039063c-6.90625 0-12.527343-5.617187-12.527343-12.523437v-52.601563h45.089843zm0 0"/><path d="m67.632812 460.898438h80.15625v15.03125h-80.15625zm0 0"/><path d="m364.210938 460.898438h80.15625v15.03125h-80.15625zm0 0"/><path d="m218.425781 255.5v35.066406h-35.066406v75.148438h35.066406v35.066406h75.148438v-35.066406h35.066406v-75.148438h-35.066406v-35.066406zm95.1875 50.097656v45.085938h-35.070312v35.070312h-45.085938v-35.070312h-35.070312v-45.085938h35.070312v-35.070312h45.085938v35.070312zm0 0"/><path d="m414.308594 130.253906h50.097656v15.03125h-50.097656zm0 0"/><path d="m384.25 130.253906h15.03125v15.03125h-15.03125zm0 0"/><path d="m138.269531 400.78125h15.03125v15.03125h-15.03125zm0 0"/><path d="m108.210938 400.78125h15.03125v15.03125h-15.03125zm0 0"/><path d="m388.757812 400.78125h15.03125v15.03125h-15.03125zm0 0"/><path d="m358.699219 400.78125h15.03125v15.03125h-15.03125zm0 0"/></svg>