<svg height="512pt" viewBox="0 -33 512 511" width="512pt" xmlns="http://www.w3.org/2000/svg"><path d="m165.324219 256.535156v-37.742187h-15.03125v41.679687l21.710937 38.609375h-98.527344l21.710938-38.609375v-94.648437h55.105469v37.9375h15.03125v-52.96875h-85.167969v105.742187l-75.339844 133.992188c-3.152344 5.625-4.816406 11.929687-4.816406 18.234375 0 20.738281 16.984375 37.609375 37.863281 37.609375h12.050781v-15.03125h-12.050781c-14.101562 0-22.832031-11.71875-22.832031-22.578125 0-3.792969.972656-7.457031 2.890625-10.878907l47.101563-83.769531h115.429687l47.097656 83.757813c1.921875 3.4375 2.898438 7.097656 2.898438 10.890625 0 10.859375-8.730469 22.578125-22.835938 22.578125h-142.667969v15.03125h142.667969c20.878907 0 37.867188-16.871094 37.867188-37.609375 0-6.304688-1.667969-12.609375-4.824219-18.246094zm0 0"/><path d="m67.632812 120.734375h110.214844v15.03125h-110.214844zm0 0"/><path d="m496.96875 401.28125v-182.855469c0-15.195312-12.359375-27.554687-27.550781-27.554687h-12.527344v-70.136719h-85.164063v47.59375h15.027344v-32.5625h55.109375v85.164063h-55.109375v-37.574219h-15.027344v150.296875c0 23.480468 19.101563 42.582031 42.582032 42.582031 23.480468 0 42.582031-19.101563 42.582031-42.582031v-127.75h12.527344c6.90625 0 12.523437 5.617187 12.523437 12.523437v182.855469h-115.226562v45.089844h145.285156v-45.089844zm-55.105469-67.628906c0 15.191406-12.363281 27.550781-27.554687 27.550781s-27.554688-12.359375-27.554688-27.550781v-97.691406h55.109375zm55.105469 97.6875h-115.222656v-15.027344h115.222656zm0 0"/><path d="m376.234375 15.53125h20.039063c5.800781 0 10.519531 4.71875 10.519531 10.519531v48.09375h15.03125v-48.09375c0-14.089843-11.460938-25.550781-25.550781-25.550781h-20.039063c-14.089844 0-25.550781 11.460938-25.550781 25.550781v34.066407c0 5.800781-4.71875 10.519531-10.519532 10.519531-5.800781 0-10.519531-4.71875-10.519531-10.519531v-34.066407c0-14.089843-11.460937-25.550781-25.550781-25.550781s-25.550781 11.460938-25.550781 25.550781v34.066407c0 5.800781-4.71875 10.519531-10.519531 10.519531-5.800782 0-10.519532-4.71875-10.519532-10.519531v-34.066407c0-14.089843-11.460937-25.550781-25.550781-25.550781s-25.550781 11.460938-25.550781 25.550781v34.066407c0 5.800781-4.71875 10.519531-10.519532 10.519531-5.800781 0-10.519531-4.71875-10.519531-10.519531v-34.066407c0-14.089843-11.460937-25.550781-25.550781-25.550781h-19.039062c-14.085938 0-25.546876 11.460938-25.546876 25.550781v48.09375h15.027344v-48.09375c0-5.800781 4.71875-10.519531 10.519532-10.519531h19.039062c5.800781 0 10.519531 4.71875 10.519531 10.519531v34.066407c0 14.085937 11.460938 25.550781 25.550781 25.550781 14.089844 0 25.550782-11.464844 25.550782-25.550781v-34.066407c0-5.800781 4.71875-10.519531 10.519531-10.519531s10.519531 4.71875 10.519531 10.519531v34.066407c0 14.085937 11.460938 25.550781 25.550782 25.550781 14.089843 0 25.550781-11.464844 25.550781-25.550781v-34.066407c0-5.800781 4.71875-10.519531 10.519531-10.519531s10.519531 4.71875 10.519531 10.519531v34.066407c0 14.085937 11.460938 25.550781 25.550781 25.550781 14.089844 0 25.550782-11.464844 25.550782-25.550781v-34.066407c0-5.800781 4.71875-10.519531 10.519531-10.519531zm0 0"/><path d="m115.226562 89.171875h15.027344v15.03125h-15.027344zm0 0"/><path d="m406.792969 89.171875h15.03125v15.03125h-15.03125zm0 0"/><path d="m411.804688 277.542969h15.027343v15.027343h-15.027343zm0 0"/><path d="m401.785156 311.609375h15.027344v15.027344h-15.027344zm0 0"/><path d="m81.660156 339.160156h15.027344v15.03125h-15.027344zm0 0"/><path d="m58.613281 393.265625h15.03125v15.03125h-15.03125zm0 0"/><path d="m142.777344 349.179688h15.03125v15.03125h-15.03125zm0 0"/><path d="m162.816406 390.261719h15.03125v15.027343h-15.03125zm0 0"/><path d="m109.714844 383.246094h15.027344v15.03125h-15.027344zm0 0"/></svg>