<svg height="512pt" viewBox="0 0 512 512" width="512pt" xmlns="http://www.w3.org/2000/svg"><path d="m476.71875 235.507812-8.59375 12.332032 20.65625 14.390625-182 73.164062-50.78125-40.953125-50.78125 40.953125-182-73.164062 20.65625-14.394531-8.59375-12.328126-35.28125 24.585938v251.90625h127.753906v-15.03125h-98.949218l227.195312-183.222656 113.367188 91.425781 9.433593-11.699219-58.613281-47.269531 176.78125-71.066406v213.636719l-106.46875-85.863282-9.433594 11.699219 102.128906 82.359375h-340.414062v15.03125h369.21875v-251.90625zm-461.6875 253.265626v-213.636719l176.78125 71.066406zm0 0"/><path d="m58.113281 154.800781h15.03125v106.210938h-15.03125zm0 0"/><path d="m438.855469 70.636719h15.03125v190.375h-15.03125zm0 0"/><path d="m73.144531 15.03125h365.710938v40.578125h15.03125v-55.609375h-395.773438v139.773438h15.03125zm0 0"/><path d="m138.269531 155.804688c0 64.917968 52.8125 117.730468 117.730469 117.730468s117.730469-52.8125 117.730469-117.730468c0-24.023438-7.191407-47.136719-20.796875-66.835938l-12.367188 8.542969c11.863282 17.175781 18.132813 37.332031 18.132813 58.292969 0 56.628906-46.070313 102.699218-102.699219 102.699218s-102.699219-46.070312-102.699219-102.699218c0-56.628907 46.070313-102.699219 102.699219-102.699219 19.308594 0 38.121094 5.382812 54.402344 15.574219l7.972656-12.742188c-18.675781-11.6875-40.242188-17.863281-62.375-17.863281-64.917969 0-117.730469 52.8125-117.730469 117.730469zm0 0"/><path d="m331.851562 86.566406 11.097657-10.136718c-3.597657-3.9375-7.496094-7.664063-11.589844-11.078126l-9.625 11.542969c3.574219 2.980469 6.976563 6.234375 10.117187 9.671875zm0 0"/><path d="m288.5625 88.171875h-65.125v35.070313h-35.070312v65.125h35.070312v35.070312h65.125v-35.070312h35.070312v-65.125h-35.070312zm20.039062 50.097656v35.070313h-35.066406v35.066406h-35.070312v-35.066406h-35.066406v-35.070313h35.066406v-35.066406h35.070312v35.066406zm0 0"/><path d="m200.890625 466.910156h15.03125v15.03125h-15.03125zm0 0"/><path d="m230.949219 466.910156h15.03125v15.03125h-15.03125zm0 0"/><path d="m261.011719 466.910156h50.097656v15.03125h-50.097656zm0 0"/><path d="m408.796875 95.6875h15.03125v15.027344h-15.03125zm0 0"/><path d="m408.796875 30.558594h15.03125v50.097656h-15.03125zm0 0"/></svg>