<svg height="512pt" viewBox="0 -43 512 512" width="512pt" xmlns="http://www.w3.org/2000/svg"><path d="m15.03125 37.574219c0-12.433594 10.113281-22.542969 22.542969-22.542969h315.328125v-15.03125h-315.328125c-20.71875 0-37.574219 16.855469-37.574219 37.574219v228.589843h15.03125zm0 0"/><path d="m474.425781 0h-106.492187v15.03125h106.492187c12.429688 0 22.542969 10.109375 22.542969 22.542969v350.683593c0 12.433594-10.113281 22.542969-22.542969 22.542969h-436.851562c-12.429688 0-22.542969-10.109375-22.542969-22.542969v-107.066406h-15.03125v107.066406c0 20.71875 16.855469 37.574219 37.574219 37.574219h436.851562c20.71875 0 37.574219-16.855469 37.574219-37.574219v-350.683593c0-20.71875-16.855469-37.574219-37.574219-37.574219zm0 0"/><path d="m471.921875 131.757812v-91.679687h-431.84375v285.558594h431.84375v-178.851563h-15.03125v163.820313h-401.78125v-255.496094h401.78125v76.648437zm0 0"/><path d="m50.097656 368.21875c0 12.433594 10.113282 22.542969 22.542969 22.542969h52.605469v-45.085938h-52.605469c-12.429687 0-22.542969 10.113281-22.542969 22.542969zm22.542969-7.515625h37.574219v15.03125h-37.574219c-4.144531 0-7.511719-3.371094-7.511719-7.515625s3.367188-7.515625 7.511719-7.515625zm0 0"/><path d="m215.421875 390.761719v-45.085938h-75.148437v45.085938zm-60.117187-30.058594h45.085937v15.03125h-45.085937zm0 0"/><path d="m305.597656 390.761719v-45.085938h-75.148437v45.085938zm-60.117187-30.058594h45.085937v15.03125h-45.085937zm0 0"/><path d="m320.625 345.675781v45.085938h52.605469c12.429687 0 22.542969-10.109375 22.542969-22.542969 0-12.429688-10.113282-22.542969-22.542969-22.542969zm60.117188 22.542969c0 4.144531-3.367188 7.515625-7.511719 7.515625h-37.574219v-15.03125h37.574219c4.144531 0 7.511719 3.371094 7.511719 7.515625zm0 0"/><path d="m416.8125 368.21875c0 15.195312 12.363281 27.554688 27.554688 27.554688 15.195312 0 27.554687-12.359376 27.554687-27.554688 0-15.191406-12.359375-27.554688-27.554687-27.554688-15.191407 0-27.554688 12.363282-27.554688 27.554688zm40.078125 0c0 6.90625-5.617187 12.523438-12.523437 12.523438s-12.523438-5.617188-12.523438-12.523438 5.617188-12.523438 12.523438-12.523438 12.523437 5.617188 12.523437 12.523438zm0 0"/><path d="m202.835938 85.167969c14.609374 0 28.332031 5.699219 38.644531 16.050781l14.519531 14.578125 14.519531-14.578125c10.308594-10.351562 24.035157-16.050781 38.644531-16.050781 7.492188 0 14.757813 1.496093 21.605469 4.441406l5.945313-13.800781c-8.730469-3.761719-18.003906-5.667969-27.550782-5.667969-18.636718 0-36.140624 7.269531-49.292968 20.472656l-3.871094 3.886719-3.871094-3.886719c-13.152344-13.207031-30.660156-20.476562-49.292968-20.476562-18.535157 0-35.972657 7.203125-49.101563 20.28125-13.203125 13.152343-20.472656 30.660156-20.472656 49.292969 0 18.53125 7.199219 35.972656 20.28125 49.101562l102.457031 102.855469 102.457031-102.855469c13.078125-13.128906 20.28125-30.570312 20.28125-49.101562 0-10.136719-2.257812-20.328126-6.53125-29.472657l-13.617187 6.363281c3.351562 7.164063 5.121094 15.15625 5.117187 23.109376 0 14.53125-5.644531 28.203124-15.898437 38.496093l-91.808594 92.164063-91.808594-92.164063c-.28125-.28125-.542968-.574219-.816406-.859375h24.367188l13.132812-18.542968 43.636719 61.902343 43.238281-72.722656 15.871094 29.363281h25.523437v-15.03125h-16.5625l-24.207031-44.785156-44.933594 75.570312-42.535156-60.339843-20.933594 29.554687h-26.792968c-3.195313-7.007812-4.890626-14.675781-4.890626-22.605468 0-14.609376 5.699219-28.332032 16.050782-38.644532 10.292968-10.253906 23.964844-15.898437 38.496094-15.898437zm0 0"/><path d="m363.285156 95.980469c-1.5625-1.929688-3.253906-3.800781-5.019531-5.5625-2.203125-2.195313-4.570313-4.257813-7.03125-6.128907l-9.097656 11.960938c1.929687 1.46875 3.785156 3.089844 5.523437 4.816406 1.390625 1.386719 2.71875 2.855469 3.945313 4.371094zm0 0"/><path d="m107.710938 270.527344h15.027343v15.03125h-15.027343zm0 0"/><path d="m77.652344 270.527344h15.027344v15.03125h-15.027344zm0 0"/><path d="m419.320312 270.527344h15.027344v15.03125h-15.027344zm0 0"/><path d="m389.261719 270.527344h15.027343v15.03125h-15.027343zm0 0"/></svg>