<svg height="512pt" viewBox="0 0 512 512" width="512pt" xmlns="http://www.w3.org/2000/svg"><path d="m512 322.128906v-165.824218h-189.871094v15.03125h26.941406l27.007813 131.195312-154.511719 105.519531-107.605468-97.191406-10.074219 11.15625 104.910156 94.757813-117.433594 80.195312h-76.332031v-255.210938l77.703125 70.183594 10.074219-11.15625-87.777344-79.28125v-50.167968h34.566406v-15.03125h-49.597656v355.695312h195.882812v-15.03125h-77.871093l102.257812-69.832031 77.320313 69.832031h-86.679688v15.03125h301.089844v-174.839844h-15.03125v159.808594h-65.511719l-38.640625-187.671875 104.152344-71.128906v83.960937zm-95.886719 174.839844h-96.101562l-86.972657-78.554688 146.324219-99.929687zm-26.582031-203.625-25.117188-122.007812h132.554688v48.632812zm0 0"/><path d="m185.863281 296.320312 86.789063-86.792968c23.183594-23.179688 35.949218-54.003906 35.949218-86.789063 0-24.894531-7.398437-48.855469-21.402343-69.289062l-12.398438 8.496093c12.28125 17.921876 18.773438 38.941407 18.773438 60.792969 0 28.773438-11.203125 55.820313-31.546875 76.164063l-76.164063 76.164062-76.164062-76.164062c-20.34375-20.34375-31.546875-47.390625-31.546875-76.164063 0-28.769531 11.203125-55.816406 31.546875-76.160156s47.394531-31.546875 76.164062-31.546875c21.089844 0 41.496094 6.078125 59.019531 17.582031l8.246094-12.566406c-19.976562-13.117187-43.238281-20.046875-67.265625-20.046875-32.785156 0-63.609375 12.765625-86.789062 35.949219-23.183594 23.183593-35.949219 54.003906-35.949219 86.789062 0 32.785157 12.765625 63.609375 35.949219 86.792969zm0 0"/><path d="m266.125 50.90625 11.191406-10.03125c-1.503906-1.679688-3.074218-3.335938-4.664062-4.925781-2.164063-2.164063-4.433594-4.269531-6.746094-6.265625l-9.8125 11.382812c2.03125 1.753906 4.027344 3.609375 5.933594 5.511719 1.398437 1.398437 2.777344 2.855469 4.097656 4.328125zm0 0"/><path d="m218.425781 191.375v-35.070312h35.070313v-65.125h-35.070313v-35.070313h-65.125v35.070313h-35.070312v65.125h35.070312v35.070312zm-85.164062-50.097656v-35.070313h35.066406v-35.066406h35.070313v35.066406h35.066406v35.070313h-35.066406v35.066406h-35.070313v-35.066406zm0 0"/><path d="m30.058594 444.367188v37.574218h37.574218v-15.03125h-22.542968v-22.542968zm0 0"/><path d="m440.359375 186.363281h40.078125v15.03125h-40.078125zm0 0"/><path d="m410.300781 186.363281h15.03125v15.03125h-15.03125zm0 0"/></svg>