<svg height="512pt" viewBox="0 -43 512 512" width="512pt" xmlns="http://www.w3.org/2000/svg"><path d="m114.722656 300.585938c-34.527344 0-62.621094 28.09375-62.621094 62.625 0 34.527343 28.09375 62.621093 62.621094 62.621093 34.53125 0 62.625-28.09375 62.625-62.621093 0-34.53125-28.09375-62.625-62.625-62.625zm0 110.214843c-26.242187 0-47.589844-21.347656-47.589844-47.589843 0-26.242188 21.347657-47.59375 47.589844-47.59375 26.242188 0 47.59375 21.351562 47.59375 47.59375 0 26.242187-21.351562 47.589843-47.59375 47.589843zm0 0"/><path d="m114.722656 335.65625c-15.191406 0-27.550781 12.359375-27.550781 27.554688 0 15.191406 12.359375 27.550781 27.550781 27.550781 15.195313 0 27.554688-12.359375 27.554688-27.550781 0-15.195313-12.359375-27.554688-27.554688-27.554688zm0 40.078125c-6.90625 0-12.523437-5.617187-12.523437-12.523437s5.617187-12.527344 12.523437-12.527344 12.527344 5.621094 12.527344 12.527344-5.621094 12.523437-12.527344 12.523437zm0 0"/><path d="m15.03125 336.15625v-46.289062h-15.03125v46.289062c0 15.195312 12.359375 27.554688 27.554688 27.554688h6.332031v-15.03125h-6.332031c-6.90625 0-12.523438-5.617188-12.523438-12.523438zm0 0"/><path d="m15.03125 117.730469c0-12.433594 10.109375-22.542969 22.542969-22.542969h196.4375v-15.03125h-196.4375c-20.71875 0-37.574219 16.855469-37.574219 37.574219v157.109375h15.03125zm0 0"/><path d="m496.96875 348.679688h-14.847656v15.03125h29.878906v-105.382813h-15.03125zm0 0"/><path d="m470.496094 184.816406-41.042969-104.660156h-48.710937v-17.535156c0-17.953125-14.605469-32.5625-32.5625-32.5625-17.953126 0-32.5625 14.609375-32.5625 32.5625v17.535156h-66.574219v15.03125h31.503906v79.652344c0 12.433594 10.113281 22.546875 22.546875 22.546875h159.15625l34.71875 21.699219v24.210937h15.03125v-32.542969zm-139.851563-122.195312c0-9.667969 7.867188-17.53125 17.535157-17.53125 9.667968 0 17.535156 7.863281 17.535156 17.53125v17.535156h-35.070313zm-27.550781 119.734375c-4.144531 0-7.515625-3.371094-7.515625-7.515625v-79.652344h123.625l34.183594 87.167969zm0 0"/><path d="m195.558594 348.679688h124.890625v15.03125h-124.890625zm0 0"/><path d="m401.285156 300.585938c-34.53125 0-62.625 28.09375-62.625 62.625 0 34.527343 28.09375 62.621093 62.625 62.621093 34.527344 0 62.621094-28.09375 62.621094-62.621093 0-34.53125-28.09375-62.625-62.621094-62.625zm0 110.214843c-26.242187 0-47.59375-21.347656-47.59375-47.589843 0-26.242188 21.351563-47.59375 47.59375-47.59375 26.242188 0 47.589844 21.351562 47.589844 47.59375 0 26.242187-21.347656 47.589843-47.589844 47.589843zm0 0"/><path d="m401.285156 335.65625c-15.195312 0-27.554687 12.359375-27.554687 27.554688 0 15.191406 12.359375 27.550781 27.554687 27.550781 15.191406 0 27.550782-12.359375 27.550782-27.550781 0-15.195313-12.359376-27.554688-27.550782-27.554688zm0 40.078125c-6.90625 0-12.527344-5.617187-12.527344-12.523437s5.621094-12.527344 12.527344-12.527344 12.523438 5.621094 12.523438 12.527344-5.617188 12.523437-12.523438 12.523437zm0 0"/><path d="m65.628906 272.53125h410.800782v15.03125h-410.800782zm0 0"/><path d="m35.570312 272.53125h15.027344v15.03125h-15.027344zm0 0"/><path d="m65.628906 242.472656h410.800782v15.03125h-410.800782zm0 0"/><path d="m35.570312 242.472656h15.027344v15.03125h-15.027344zm0 0"/><path d="m340.664062 0h15.03125v15.03125h-15.03125zm0 0"/><path d="m298.582031 23.65625 10.628907-10.625 10.625 10.625-10.625 10.628906zm0 0"/><path d="m376.917969 23.648438 10.628906-10.625 10.625 10.625-10.625 10.628906zm0 0"/><path d="m170.332031 220.429688v-25.046876h25.050781v-55.109374h-25.050781v-25.046876h-55.105469v25.046876h-25.050781v55.109374h25.050781v25.046876zm-65.125-40.078126v-25.046874h25.046875v-25.050782h25.050782v25.050782h25.046874v25.046874h-25.046874v25.050782h-25.050782v-25.050782zm0 0"/><path d="m338.160156 147.289062h15.03125v15.027344h-15.03125zm0 0"/><path d="m368.21875 147.289062h50.097656v15.027344h-50.097656zm0 0"/><path d="m318.121094 117.230469h15.03125v15.027343h-15.03125zm0 0"/><path d="m348.179688 117.230469h50.097656v15.027343h-50.097656zm0 0"/></svg>