<svg height="512pt" viewBox="0 -18 512 512" width="512pt" xmlns="http://www.w3.org/2000/svg"><path d="m474.425781 0h-95.613281v15.03125h95.613281c12.429688 0 22.542969 10.109375 22.542969 22.542969v77.578125h15.03125v-77.578125c0-20.71875-16.855469-37.574219-37.574219-37.574219zm0 0"/><path d="m15.03125 328.140625v-42.582031h143.777344v-15.03125h-143.777344v-232.953125c0-12.433594 10.109375-22.542969 22.542969-22.542969h326.207031v-15.03125h-326.207031c-20.71875 0-37.574219 16.855469-37.574219 37.574219v290.566406c0 20.71875 16.855469 37.574219 37.574219 37.574219h55.820312v-15.03125h-55.820312c-12.433594 0-22.542969-10.113282-22.542969-22.542969zm0 0"/><path d="m496.96875 270.527344h-323.128906v15.03125h323.128906v42.582031c0 12.429687-10.113281 22.542969-22.542969 22.542969h-366v15.03125h78.792969l-7.875 55.105468h-23.539062c-15.195313 0-27.554688 12.363282-27.554688 27.554688v27.554688h255.5v-27.554688c0-15.191406-12.363281-27.554688-27.554688-27.554688h-23.539062l-7.875-55.105468h149.644531c20.71875 0 37.574219-16.855469 37.574219-37.574219v-197.957031h-15.03125zm-140.773438 165.324218c6.90625 0 12.523438 5.617188 12.523438 12.523438v12.523438h-225.4375v-12.523438c0-6.90625 5.617188-12.523438 12.523438-12.523438h66.558593v-15.03125h-27.835937l7.871094-55.105468h107.203124l7.871094 55.105468h-80.082031v15.03125zm0 0"/><path d="m248.484375 310.605469h15.03125v15.03125h-15.03125zm0 0"/><path d="m185.691406 52.726562-33.285156 94.285157-26.484375-45.433594-30.792969 37.695313h-53.546875v15.027343h60.675781l21.59375-26.429687 31.917969 54.757812 28.261719-80.050781 32.144531 114.90625 35.222657-63.183594h60.710937v-15.027343h-69.542969l-21.75 39.015624zm0 0"/><path d="m344.171875 45.089844h120.234375v15.027344h-120.234375zm0 0"/><path d="m344.171875 225.441406h120.234375v15.027344h-120.234375zm0 0"/><path d="m344.171875 105.207031h120.234375v15.027344h-120.234375zm0 0"/><path d="m344.171875 165.324219h120.234375v15.027343h-120.234375zm0 0"/><path d="m366.714844 75.148438h15.03125v15.027343h-15.03125zm0 0"/><path d="m396.773438 75.148438h15.03125v15.027343h-15.03125zm0 0"/><path d="m426.832031 75.148438h15.03125v15.027343h-15.03125zm0 0"/><path d="m396.773438 135.265625h15.03125v15.027344h-15.03125zm0 0"/><path d="m426.832031 135.265625h15.03125v15.027344h-15.03125zm0 0"/><path d="m366.714844 135.265625h15.03125v15.027344h-15.03125zm0 0"/><path d="m396.773438 195.382812h15.03125v15.027344h-15.03125zm0 0"/><path d="m426.832031 195.382812h15.03125v15.027344h-15.03125zm0 0"/><path d="m366.714844 195.382812h15.03125v15.027344h-15.03125zm0 0"/></svg>