<svg height="512pt" viewBox="0 0 512 512" width="512pt" xmlns="http://www.w3.org/2000/svg"><path d="m496.96875 454.386719c0 23.480469-19.101562 42.582031-42.582031 42.582031h-223.722657v15.03125h223.722657c31.769531 0 57.613281-25.84375 57.613281-57.613281v-342.097657h-15.03125zm0 0"/><path d="m15.03125 454.386719v-194.09375h-15.03125v194.09375c0 31.769531 25.84375 57.613281 57.613281 57.613281h158.023438v-15.03125h-158.023438c-23.480469 0-42.582031-19.101562-42.582031-42.582031zm0 0"/><path d="m454.386719 0h-396.773438c-31.769531 0-57.613281 25.84375-57.613281 57.613281v187.652344h15.03125v-187.652344c0-23.480469 19.101562-42.582031 42.582031-42.582031h396.773438c23.480469 0 42.582031 19.101562 42.582031 42.582031v39.648438h15.03125v-39.648438c0-31.769531-25.84375-57.613281-57.613281-57.613281zm0 0"/><path d="m98.191406 165.324219h315.617188v-125.246094h-92.679688v15.03125h77.648438v95.183594h-285.554688v-95.183594h192.875v-15.03125h-207.90625zm0 0"/><path d="m338.660156 70.136719v65.128906h45.089844v-65.128906zm30.058594 50.097656h-15.027344v-35.066406h15.027344zm0 0"/><path d="m278.542969 135.265625h45.089843v-65.128906h-45.089843zm15.03125-50.097656h15.027343v35.066406h-15.027343zm0 0"/><path d="m233.457031 135.265625v-65.128906h-45.089843v65.128906zm-30.058593-50.097656h15.027343v35.066406h-15.027343zm0 0"/><path d="m75.582031 219.613281c-13.667969 14.761719-20.625 34.734375-19.078125 54.792969l10.816406 140.628906c1.191407 15.523438 8.144532 29.902344 19.566407 40.480469 11.425781 10.578125 26.292969 16.40625 41.863281 16.40625 15.574219 0 30.441406-5.828125 41.863281-16.40625 11.425781-10.582031 18.375-24.957031 19.570313-40.484375l10.816406-140.628906c1.542969-20.058594-5.410156-40.03125-19.082031-54.792969-13.667969-14.757813-33.046875-23.226563-53.167969-23.226563-20.117188 0-39.496094 8.46875-53.167969 23.230469zm53.167969-8.199219c16.183594 0 31.148438 6.535157 42.144531 18.410157 10.992188 11.871093 16.363281 27.296875 15.121094 43.429687l-10.816406 140.628906c-1.855469 24.117188-22.257813 43.007813-46.449219 43.007813-24.1875 0-44.589844-18.890625-46.445312-43.011719l-10.816407-140.625c-1.242187-16.132812 4.128907-31.558594 15.121094-43.429687 10.996094-11.871094 25.960937-18.410157 42.140625-18.410157zm0 0"/><path d="m330.082031 219.613281c-13.671875 14.761719-20.625 34.734375-19.082031 54.792969l10.816406 140.628906c1.195313 15.523438 8.144532 29.902344 19.570313 40.480469 11.421875 10.578125 26.289062 16.40625 41.863281 16.40625 15.570312 0 30.4375-5.828125 41.863281-16.40625 11.421875-10.582031 18.375-24.957031 19.566407-40.484375l10.816406-140.628906c1.546875-20.058594-5.410156-40.03125-19.078125-54.792969-13.671875-14.757813-33.050781-23.226563-53.167969-23.226563-20.121094 0-39.5 8.46875-53.167969 23.230469zm95.308594 10.210938c10.992187 11.871093 16.363281 27.296875 15.125 43.429687l-10.820313 140.628906c-1.855468 24.117188-22.257812 43.007813-46.445312 43.007813-24.191406 0-44.59375-18.890625-46.449219-43.011719l-10.816406-140.628906c-1.242187-16.132812 4.128906-31.554688 15.125-43.425781 10.992187-11.875 25.957031-18.410157 42.140625-18.410157 16.179688 0 31.144531 6.535157 42.140625 18.410157zm0 0"/><path d="m248.484375 120.234375h15.03125v15.03125h-15.03125zm0 0"/><path d="m248.484375 421.324219h15.03125v15.027343h-15.03125zm0 0"/><path d="m248.484375 225.941406h15.03125v150.292969h-15.03125zm0 0"/><path d="m248.484375 391.265625h15.03125v15.027344h-15.03125zm0 0"/><path d="m383.25 241.472656c7.710938 0 14.84375 3.113282 20.085938 8.773438 5.238281 5.660156 7.800781 13.011718 7.207031 20.699218l14.984375 1.152344c.917968-11.910156-3.050782-23.296875-11.167969-32.0625s-19.164063-13.59375-31.109375-13.59375zm0 0"/></svg>