<svg height="512pt" viewBox="-58 0 512 512" width="512pt" xmlns="http://www.w3.org/2000/svg"><path d="m373.230469 466.910156h-235.460938v15.03125h235.460938c4.144531 0 7.511719 3.371094 7.511719 7.515625s-3.367188 7.511719-7.511719 7.511719h-358.199219v-15.027344h107.707031v-15.03125h-77.648437v-301.585937h35.066406v-30.058594h66.175781c3.28125 11.550781 13.917969 20.039063 26.503907 20.039063h2.507812v17.46875c-25.285156 9.28125-47.066406 25.613281-63.238281 47.472656-17.621094 23.824218-26.9375 52.125-26.9375 81.84375 0 54.023437 31.8125 103.320312 81.050781 125.589844l6.195312-13.695313c-43.871093-19.839844-72.21875-63.761719-72.21875-111.894531 0-8.96875.980469-17.742188 2.824219-26.230469 3.144531 1.15625 5.605469 2.996094 8.53125 5.191406 5.652344 4.238281 12.6875 9.515625 25.878907 9.515625 13.195312 0 20.230468-5.277344 25.882812-9.515625 5.042969-3.78125 8.683594-6.515625 16.867188-6.515625 8.183593 0 11.824218 2.734375 16.867187 6.515625 5.652344 4.238281 12.691406 9.515625 25.882813 9.515625 13.191406 0 20.226562-5.277344 25.882812-9.515625 5.039062-3.78125 8.683594-6.515625 16.863281-6.515625 8.183594 0 11.828125 2.734375 16.871094 6.515625 5.65625 4.238281 12.691406 9.515625 25.882813 9.515625 13.195312 0 20.230468-5.277344 25.886718-9.515625 2.929688-2.199219 5.394532-4.039062 8.546875-5.195312 1.855469 8.535156 2.8125 17.324219 2.8125 26.234375 0 67.679687-55.0625 122.738281-122.742187 122.738281-12.742188 0-25.296875-1.941406-37.316406-5.773437l-4.566407 14.320312c13.5 4.304688 27.589844 6.484375 41.882813 6.484375 75.96875 0 137.769531-61.804687 137.769531-137.769531 0-35.378906-13.390625-69.007813-37.707031-94.691406l-10.914063 10.332031c12.011719 12.6875 21.023438 27.550781 26.675781 43.648437-5.816406 1.917969-9.910156 4.988282-13.457031 7.648438-5.042969 3.78125-8.683593 6.511718-16.871093 6.511718-8.183594 0-11.824219-2.730468-16.867188-6.511718-5.65625-4.242188-12.691406-9.519532-25.886719-9.519532-13.191406 0-20.226562 5.277344-25.882812 9.519532-5.039063 3.78125-8.679688 6.511718-16.863281 6.511718-8.183594 0-11.824219-2.730468-16.867188-6.511718-5.652344-4.242188-12.691406-9.519532-25.882812-9.519532-13.191407 0-20.226563 5.277344-25.882813 9.519532-5.042969 3.78125-8.683594 6.511718-16.867187 6.511718-8.179688 0-11.820313-2.730468-16.863282-6.511718-3.546875-2.664063-7.644531-5.730469-13.464844-7.648438 12.410157-35.488281 40.726563-64.039062 78.066407-76.101562l5.203125-1.679688v-28.523437c13.542968-1.730469 24.046875-13.320313 24.046875-27.324219s-10.503907-25.59375-24.046875-27.320312v-21.273438h65.128906v21.269531c-13.542969 1.730469-24.046875 13.320313-24.046875 27.324219s10.503906 25.59375 24.046875 27.320312v28.527344l5.203125 1.679688c15.0625 4.867187 28.882813 12.519531 41.074219 22.746094l9.660156-11.511719c-12.265625-10.289063-26.007812-18.261719-40.910156-23.738281v-17.46875h2.507812c15.191406 0 27.550782-12.363282 27.550782-27.554688 0-15.195312-12.359376-27.554688-27.550782-27.554688h-2.507812v-22.332031c8.746094-3.101562 15.03125-11.457031 15.03125-21.253906 0-12.429687-10.113282-22.542969-22.542969-22.542969h-22.902344v15.03125h22.902344c4.140625 0 7.511719 3.367188 7.511719 7.511719s-3.371094 7.515625-7.511719 7.515625h-80.160156c-4.140625 0-7.511719-3.371094-7.511719-7.515625s3.371094-7.511719 7.511719-7.511719h42.226562v-15.03125h-42.226562c-12.429688 0-22.542969 10.113282-22.542969 22.542969 0 9.796875 6.285156 18.152344 15.03125 21.253906v22.332031h-2.507812c-12.585938 0-23.222657 8.488282-26.503907 20.039063h-66.175781v-30.058594h-35.066406v-46.378906c8.746094-3.101563 15.027344-11.457031 15.027344-21.253906 0-12.429688-10.113282-22.542969-22.542969-22.542969-12.429688 0-22.542969 10.113281-22.542969 22.542969 0 9.796875 6.28125 18.152343 15.027344 21.253906v46.378906h-15.027344v75.148438h15.027344v301.585937h-30.058594v45.089844h373.230469c12.429687 0 22.542969-10.113281 22.542969-22.542969 0-12.433593-10.113282-22.546875-22.542969-22.546875zm-100.195313-351.683594c6.90625 0 12.523438 5.617188 12.523438 12.523438s-5.617188 12.523438-12.523438 12.523438h-14.027344c-6.910156 0-12.527343-5.617188-12.527343-12.523438s5.617187-12.523438 12.527343-12.523438zm-100.199218 0h14.027343c6.90625 0 12.527344 5.617188 12.527344 12.523438s-5.621094 12.523438-12.527344 12.523438h-14.027343c-6.90625 0-12.523438-5.617188-12.523438-12.523438s5.617188-12.523438 12.523438-12.523438zm-135.261719-100.195312c4.144531 0 7.515625 3.367188 7.515625 7.511719s-3.371094 7.515625-7.515625 7.515625-7.515625-3.371094-7.515625-7.515625 3.371094-7.511719 7.515625-7.511719zm-7.515625 90.175781h35.070312v45.085938h-35.070312zm0 0"/><path d="m168.828125 310.605469c-15.191406 0-27.550781 12.359375-27.550781 27.554687 0 15.195313 12.359375 27.554688 27.550781 27.554688 15.195313 0 27.554687-12.359375 27.554687-27.554688 0-15.195312-12.359374-27.554687-27.554687-27.554687zm0 40.078125c-6.90625 0-12.523437-5.617188-12.523437-12.523438s5.617187-12.523437 12.523437-12.523437 12.527344 5.617187 12.527344 12.523437-5.621094 12.523438-12.527344 12.523438zm0 0"/><path d="m232.453125 370.222656c0 13.535156 11.011719 24.546875 24.550781 24.546875 13.535156 0 24.546875-11.011719 24.546875-24.546875s-11.011719-24.546875-24.546875-24.546875c-13.539062 0-24.550781 11.011719-24.550781 24.546875zm24.550781-9.519531c5.246094 0 9.515625 4.273437 9.515625 9.519531 0 5.25-4.269531 9.519532-9.515625 9.519532-5.25 0-9.519531-4.269532-9.519531-9.519532 0-5.246094 4.269531-9.519531 9.519531-9.519531zm0 0"/><path d="m251.464844 213.882812c10.097656 3.261719 19.460937 8.152344 27.828125 14.539063l9.117187-11.949219c-9.726562-7.421875-20.601562-13.105468-32.328125-16.890625zm0 0"/><path d="m289.664062 237.648438c3.207032 3.320312 6.191407 6.914062 8.867188 10.679687l12.253906-8.703125c-3.109375-4.382812-6.582031-8.558594-10.3125-12.421875zm0 0"/><path d="m194.878906 381.746094h15.03125v15.027344h-15.03125zm0 0"/><path d="m224.9375 315.617188h15.03125v15.027343h-15.03125zm0 0"/><path d="m295.078125 325.636719h15.027344v15.027343h-15.027344zm0 0"/></svg>