<svg height="512pt" viewBox="-103 0 512 512" width="512pt" xmlns="http://www.w3.org/2000/svg"><path d="m305.296875 189.113281v-81.507812c0-26.21875-21.328125-47.546875-47.546875-47.546875h-37.535156v-22.523438c0-20.695312-16.839844-37.535156-37.535156-37.535156h-60.058594c-20.699219 0-37.539063 16.839844-37.539063 37.535156v22.523438h-37.535156c-26.21875 0-47.546875 21.328125-47.546875 47.546875v258.109375h15.015625v-40.113282c11.710937.910157 18.570313 3.917969 25.746094 7.085938 9.179687 4.050781 19.589843 8.648438 39.3125 8.648438 19.726562 0 30.132812-4.59375 39.316406-8.648438 8.585937-3.789062 16.695313-7.367188 33.253906-7.367188 16.558594 0 24.667969 3.578126 33.253907 7.367188 9.183593 4.050781 19.59375 8.648438 39.320312 8.648438s30.132812-4.59375 39.316406-8.648438c7.171875-3.167969 14.03125-6.175781 25.75-7.085938v72.285157c0 17.9375-14.597656 32.535156-32.535156 32.535156h-210.203125c-17.9375 0-32.53125-14.597656-32.53125-32.535156v-17.15625h-15.015625v17.15625c0 26.21875 21.328125 47.546875 47.546875 47.546875h7.507813v40.039062h45.042968v-40.039062h15.015625v40.039062h30.027344v26.527344h15.015625v-26.527344h30.03125v-40.039062h15.011719v40.039062h45.046875v-40.039062h7.503906c26.21875 0 47.546875-21.328125 47.546875-47.546875v-193.757813h-15.011719v106.421875c-15.003906.992188-23.871094 4.894531-31.8125 8.398438-8.585937 3.789062-16.695312 7.371093-33.253906 7.371093-16.5625 0-24.671875-3.582031-33.257812-7.371093-9.179688-4.050781-19.589844-8.644531-39.316407-8.644531-19.726562 0-30.132812 4.59375-39.316406 8.644531-8.585937 3.789062-16.695313 7.371093-33.253906 7.371093-16.558594 0-24.667969-3.582031-33.25-7.371093-7.941407-3.503907-16.808594-7.40625-31.808594-8.398438v-202.945312c0-17.9375 14.59375-32.53125 32.53125-32.53125h119.402344v-15.015625h-66.851563v-22.523438c0-12.417968 10.101563-22.519531 22.523438-22.519531h60.058594c12.417968 0 22.519531 10.101563 22.519531 22.519531v22.523438h-23.234375v15.015625h75.785156c17.9375 0 32.535156 14.59375 32.535156 32.53125v81.507812zm-220.214844 281.347657h-15.011719v-25.027344h15.011719zm90.089844 0h-45.042969v-25.027344h45.042969zm60.058594 0h-15.015625v-25.027344h15.015625zm0 0"/><path d="m40.039062 212.707031v72.570313h225.21875v-185.179688h-225.21875v97.59375h15.015626v-82.578125h195.191406v155.152344h-195.191406v-57.558594zm0 0"/><path d="m125.121094 140.136719v25.023437h-25.023438v55.054688h25.023438v25.023437h55.054687v-25.023437h25.023438v-55.054688h-25.023438v-25.023437zm65.066406 40.039062v25.023438h-25.027344v25.027343h-25.023437v-25.027343h-25.023438v-25.023438h25.023438v-25.023437h25.023437v25.023437zm0 0"/><path d="m132.628906 400.390625h100.097656v15.015625h-100.097656zm0 0"/><path d="m102.601562 400.390625h15.011719v15.015625h-15.011719zm0 0"/><path d="m72.570312 400.390625h15.015626v15.015625h-15.015626zm0 0"/><path d="m145.140625 30.03125h15.015625v15.011719h-15.015625zm0 0"/></svg>