<svg height="512pt" viewBox="0 0 512 512" width="512pt" xmlns="http://www.w3.org/2000/svg"><path d="m15.015625 221.210938c0-24.894532 11.199219-49.0625 34.1875-73.699219l88.464844 88.464843c-17.433594 18.582032-25.609375 33.953126-25.609375 48.011719 0 7.46875 2.257812 14.503907 6.902344 21.507813 7.847656 11.832031 49.261718 53.664062 71.113281 73.667968l10.136719-11.074218c-24.800782-22.703125-62.703126-61.792969-68.738282-70.890625-3-4.527344-4.398437-8.722657-4.398437-13.207031 0-11.003907 8.648437-25 26.4375-42.789063l21.234375-21.234375c7.089844-7.089844 10.992187-16.515625 10.992187-26.542969 0-10.027343-3.902343-19.453125-10.992187-26.542969l-56.625-56.621093c-7.089844-7.089844-16.515625-10.996094-26.542969-10.996094s-19.453125 3.90625-26.542969 10.996094l-21.230468 21.234375c-29.476563 29.472656-43.804688 58.820312-43.804688 89.714844 0 31.789062 15.40625 65.253906 48.480469 105.3125l11.578125-9.558594c-30.730469-37.21875-45.042969-67.648438-45.042969-95.753906zm60.636719-100.335938c4.253906-4.253906 9.910156-6.59375 15.925781-6.59375s11.671875 2.339844 15.925781 6.59375l56.625 56.625c4.253906 4.253906 6.597656 9.910156 6.597656 15.925781s-2.34375 11.671875-6.597656 15.925781l-15.925781 15.925782-88.476563-88.476563zm0 0"/><path d="m253.246094 290.363281 120.515625-65.144531h137.738281v-225.21875h-74.75v15.015625h59.734375v195.191406h-126.519531l-101.703125 54.972657v-54.972657h-43.042969v-31.355469h-15.011719v46.367188h43.039063zm0 0"/><path d="m225.21875 15.015625h196.515625v-15.015625h-211.527344v163.839844h15.011719zm0 0"/><path d="m356.347656 286.78125h15.015625v38.035156h-15.015625zm0 0"/><path d="m388.570312 339.527344 30.03125-30.027344 10.617188 10.617188-30.03125 30.027343zm0 0"/><path d="m413.902344 367.359375h38.039062v15.015625h-38.039062zm0 0"/><path d="m425.613281 467.652344c-8.265625 8.265625-19.253906 12.816406-30.941406 12.816406h-28.554687c4.632812-3.886719 9.257812-8.140625 13.890624-12.769531l21.230469-21.234375c7.089844-7.089844 10.996094-16.515625 10.996094-26.542969s-3.90625-19.453125-10.996094-26.542969l-56.621093-56.621094c-7.089844-7.09375-16.515626-10.996093-26.542969-10.996093-10.027344 0-19.453125 3.902343-26.542969 10.996093l-21.234375 21.230469c-17.789063 17.789063-31.785156 26.4375-42.785156 26.4375-4.484375 0-8.683594-1.398437-13.207031-4.402343-.527344-.347657-1.496094-1.039063-3.117188-2.34375l-9.417969 11.691406c1.683594 1.355468 3.066407 2.390625 4.234375 3.167968 7.003906 4.644532 14.039063 6.902344 21.507813 6.902344 14.058593 0 29.429687-8.175781 48.011719-25.609375l88.464843 88.464844c-24.636719 22.988281-48.804687 34.1875-73.699219 34.1875-54.902343 0-110.917968-56.011719-165.089843-110.183594-19.8125-19.8125-38.96875-39.160156-55.542969-58.070312l-11.292969 9.894531c16.878907 19.253906 36.222657 38.796875 56.21875 58.792969 56.332031 56.332031 114.585938 114.582031 175.707031 114.582031 18.746094 0 36.921876-5.285156 54.902344-16.015625h49.484375c15.695313 0 30.457031-6.113281 41.554688-17.210937 8.265625-8.265626 19.253906-12.816407 30.941406-12.816407h14.796875v-15.015625h-14.800781c-15.695313 0-30.457031 6.113282-41.554688 17.210938zm-139.390625-104.355469 15.925782-15.925781c4.253906-4.253906 9.910156-6.59375 15.925781-6.59375s11.671875 2.339844 15.925781 6.59375l56.625 56.625c4.253906 4.253906 6.59375 9.910156 6.59375 15.925781s-2.339844 11.671875-6.59375 15.925781l-15.929688 15.925782zm0 0"/><path d="m496.984375 450.441406h15.015625v15.011719h-15.015625zm0 0"/><path d="m398.390625 190.1875v-40.039062h40.039063v-75.074219h-40.039063v-40.039063h-75.074219v40.039063h-40.039062v75.074219h40.039062v40.039062zm-100.097656-55.054688v-45.042968h40.039062v-40.039063h45.042969v40.039063h40.039062v45.042968h-40.039062v40.039063h-45.042969v-40.039063zm0 0"/><path d="m37.21875 190.539062c-4.765625 10.308594-7.183594 20.785157-7.183594 31.140626 0 .636718.007813 1.273437.027344 1.902343l15.007812-.417969c-.015624-.496093-.019531-.996093-.019531-1.492187 0-8.269531 1.894531-16.394531 5.796875-24.832031zm0 0"/><path d="m51.5625 249.398438c-2.03125-4.730469-3.527344-9.007813-4.574219-13.070313l-14.539062 3.746094c1.238281 4.816406 2.980469 9.800781 5.316406 15.25zm0 0"/><path d="m211.515625 426.628906-9.628906 11.523438c6.613281 5.523437 13.011719 10.535156 19.019531 14.890625l8.8125-12.15625c-5.730469-4.152344-11.855469-8.949219-18.203125-14.257813zm0 0"/><path d="m241.734375 449.054688-8.011719 12.695312c4.632813 2.925781 9.207032 5.550781 13.589844 7.804688l6.863281-13.351563c-3.988281-2.054687-8.175781-4.457031-12.441406-7.148437zm0 0"/></svg>