<svg height="512pt" viewBox="-1 0 512 512" width="512pt" xmlns="http://www.w3.org/2000/svg"><path d="m482.027344 135.867188h-66.933594v14.984374h66.933594c7.4375 0 13.488281 6.050782 13.488281 13.488282s-6.050781 13.488281-13.488281 13.488281h-111.390625v-26.976563h29.472656v-14.984374h-115.386719v-18.078126c13.859375-9.449218 22.976563-25.359374 22.976563-43.363281v-21.976562c0-28.921875-23.527344-52.449219-52.449219-52.449219s-52.449219 23.527344-52.449219 52.449219v21.976562c0 18.003907 9.121094 33.914063 22.980469 43.363281v18.078126h-197.308594c-15.699218 0-28.472656 12.773437-28.472656 28.472656 0 15.699218 12.773438 28.472656 28.472656 28.472656h45.953125v-14.984375h-45.953125c-7.4375 0-13.488281-6.050781-13.488281-13.488281s6.050781-13.488282 13.488281-13.488282h111.390625v26.976563h-50.449219v14.984375h98.402344v86.667969c-5.746094 1.171875-11.007812 3.667969-15.472656 7.144531l-29.875-29.875h-85.023438v14.984375h78.816407l26.296875 26.296875c-3 5.382812-4.710938 11.574219-4.710938 18.160156 0 18.09375 12.890625 33.226563 29.96875 36.707032v103.15625h14.984375v-103.15625c14.660157-2.984376 26.230469-14.558594 29.21875-29.214844h75.679688v41.460937h14.984375v-83.175781c5.746094-1.171875 11.007812-3.664062 15.476562-7.140625l29.375 29.375h91.515625v-14.984375h-85.308593l-25.796876-25.796875c2.996094-5.382813 4.710938-11.574219 4.710938-18.160156 0-18.09375-12.894531-33.230469-29.972656-36.710938v-15.738281h159.34375c15.699218 0 28.472656-12.773438 28.472656-28.472656 0-15.699219-12.769531-28.472656-28.472656-28.472656zm-226.777344-120.882813c20.660156 0 37.464844 16.804687 37.464844 37.464844v8.34375l-15.753906-20.832031h-57.027344c5.15625-14.535157 19.035156-24.976563 35.316406-24.976563zm-37.460938 59.441406v-19.480469h51.714844l21.96875 29.050782c-4.242187 16.039062-18.871094 27.894531-36.222656 27.894531-20.65625 0-37.460938-16.804687-37.460938-37.464844zm51.949219 50.398438v16.117187c-3.519531 4.359375-8.796875 6.914063-14.488281 6.914063-5.6875 0-10.964844-2.554688-14.484375-6.914063v-16.117187c4.605469 1.328125 9.460937 2.050781 14.484375 2.050781 5.027344 0 9.882812-.722656 14.488281-2.050781zm-74.429687 213.84375c-12.394532 0-22.476563-10.082031-22.476563-22.476563 0-12.394531 10.082031-22.476562 22.476563-22.476562 12.394531 0 22.480468 10.082031 22.480468 22.476562 0 12.394532-10.085937 22.476563-22.480468 22.476563zm142.363281-93.40625c0 12.394531-10.085937 22.476562-22.480469 22.476562-12.394531 0-22.476562-10.082031-22.476562-22.476562s10.082031-22.480469 22.476562-22.480469c12.394532 0 22.480469 10.085938 22.480469 22.480469zm17.980469-67.433594h-47.953125v30.722656c-17.078125 3.480469-29.96875 18.617188-29.96875 36.710938 0 18.089843 12.890625 33.226562 29.96875 36.707031v26.730469h-75.679688c-2.988281-14.660157-14.558593-26.230469-29.21875-29.21875v-101.652344h-47.953125v-26.976563h74.652344c6.347656 7.574219 15.699219 11.988282 25.75 11.988282 10.054688 0 19.402344-4.414063 25.75-11.988282h74.652344zm0 0"/><path d="m187.816406 471.039062h14.984375v39.960938h-14.984375zm0 0"/><path d="m247.757812 370.136719h14.984376v141.863281h-14.984376zm0 0"/><path d="m42.957031 42.957031h72.429688v-14.984375h-87.414063v87.414063h14.984375zm0 0"/><path d="m42.957031 395.113281h-14.984375v87.414063h87.414063v-14.984375h-72.429688zm0 0"/><path d="m467.542969 115.386719h14.984375v-87.414063h-87.414063v14.984375h72.429688zm0 0"/><path d="m467.542969 467.542969h-72.429688v14.984375h87.414063v-87.414063h-14.984375zm0 0"/><path d="m421.089844 401.609375v-14.988281h-59.050782l-25.605468 25.609375c-4.074219-2.816407-8.730469-4.847657-13.746094-5.871094v-26.230469h-14.988281v26.230469c-17.078125 3.480469-29.96875 18.617187-29.96875 36.707031 0 18.09375 12.890625 33.230469 29.96875 36.710938v31.222656h14.988281v-31.222656c17.078125-3.480469 29.96875-18.617188 29.96875-36.710938 0-7.363281-2.144531-14.234375-5.832031-20.035156l21.421875-21.421875zm-105.898438 63.9375c-12.394531 0-22.476562-10.085937-22.476562-22.480469 0-12.394531 10.082031-22.476562 22.476562-22.476562 12.394532 0 22.480469 10.082031 22.480469 22.476562 0 12.394532-10.085937 22.480469-22.480469 22.480469zm0 0"/><path d="m217.789062 190.8125h14.984376v39.960938h-14.984376zm0 0"/><path d="m217.789062 245.761719h14.984376v14.984375h-14.984376zm0 0"/></svg>