<svg height="512pt" viewBox="-48 0 512 512" width="512pt" xmlns="http://www.w3.org/2000/svg"><path d="m265.257812 315.308594v-41.75c30.0625-19.105469 50.050782-52.703125 50.050782-90.878906v-135.132813c0-26.21875-21.332032-47.546875-47.546875-47.546875h-17.164063v15.015625h17.164063c17.9375 0 32.53125 14.59375 32.53125 32.53125v62.5625h-122.621094v15.011719h122.621094v57.558594c0 51.054687-41.535157 92.589843-92.589844 92.589843-30.832031 0-59.546875-15.28125-76.816406-40.878906l-12.449219 8.394531c8.46875 12.554688 19.316406 22.960938 31.710938 30.8125v41.710938h-62.5625c-48.292969 0-87.585938 39.289062-87.585938 87.582031v39.785156l15.015625.003907v-39.789063c0-40.015625 32.554687-72.566406 72.570313-72.566406h15.515624v55.558593c-28.203124 3.691407-50.050781 27.859376-50.050781 57.050782v57.554687h33.535157v-15.015625h-18.519532v-42.539062c0-23.457032 19.082032-42.542969 42.542969-42.542969 23.457031 0 42.539063 19.085937 42.539063 42.542969v42.539062h-18.515626v15.015625h33.53125v-57.554687c0-29.191406-21.847656-53.359375-50.046874-57.050782v-55.558593h35.375l54.210937 86.734375 54.210937-86.734375h36.378907v70.742187c-19.890625 3.558594-35.035157 20.972656-35.035157 41.867188 0 23.457031 19.082032 42.539062 42.539063 42.539062 23.460937 0 42.542969-19.082031 42.542969-42.539062 0-20.894532-15.144532-38.308594-35.035156-41.867188v-70.742187h14.515624c12.03125 0 23.945313 3 34.453126 8.679687l7.140624-13.207031c-12.695312-6.863281-27.078124-10.488281-41.59375-10.488281zm-15.011718 5.351562-42.542969 68.070313-42.542969-68.070313v-39.140625c13.242188 5.699219 27.679688 8.765625 42.542969 8.765625 15.101563 0 29.484375-3.132812 42.542969-8.777344zm83.078125 122.273438c0 15.179687-12.347657 27.527344-27.527344 27.527344-15.175781 0-27.523437-12.347657-27.523437-27.527344 0-15.179688 12.347656-27.527344 27.523437-27.527344 15.179687 0 27.527344 12.347656 27.527344 27.527344zm0 0"/><path d="m415.40625 402.890625c0-26.484375-11.796875-51.261719-32.367188-67.988281l-9.472656 11.652344c17.046875 13.859374 26.824219 34.394531 26.824219 56.335937v109.109375h15.015625zm0 0"/><path d="m0 457.707031h15.015625v54.292969h-15.015625zm0 0"/><path d="m124.015625 222.347656c-5.90625-12.4375-8.902344-25.785156-8.902344-39.667968v-57.558594h47.546875v-15.011719h-47.546875v-62.5625c0-17.9375 14.59375-32.53125 32.53125-32.53125h87.9375v-15.015625h-87.9375c-26.21875 0-47.546875 21.328125-47.546875 47.546875v135.132813c0 16.128906 3.484375 31.644531 10.355469 46.109374zm0 0"/><path d="m174.445312 252.757812 6.457032-13.554687c-7.679688-3.65625-14.441406-8.761719-20.097656-15.167969l-11.253907 9.941406c7.003907 7.929688 15.378907 14.25 24.894531 18.78125zm0 0"/><path d="m133.453125 205.175781c1.609375 5.296875 3.796875 10.433594 6.503906 15.273438l13.101563-7.332031c-2.179688-3.898438-3.941406-8.039063-5.238282-12.304688zm0 0"/><path d="m298.292969 435.425781h15.011719v15.015625h-15.011719zm0 0"/><path d="m215.210938 92.589844v-22.519532h22.519531v-15.015624h-22.519531v-22.523438h-15.015626v22.523438h-22.523437v15.015624h22.523437v22.519532zm0 0"/></svg>