<svg height="512pt" viewBox="0 0 512 512" width="512pt" xmlns="http://www.w3.org/2000/svg"><path d="m255.214844 82.078125 13.21875-7.152344c-2.503906-4.628906-5.300782-9.171875-8.308594-13.503906l-12.34375 8.570313c2.691406 3.878906 5.195312 7.941406 7.433594 12.085937zm0 0"/><path d="m15.03125 142.777344c0-70.441406 57.304688-127.746094 127.746094-127.746094 36.898437 0 71.988281 15.953125 96.277344 43.773438l11.320312-9.882813c-27.140625-31.089844-66.359375-48.921875-107.597656-48.921875-78.726563 0-142.777344 64.050781-142.777344 142.777344v162.910156h15.03125zm0 0"/><path d="m0 320.71875h15.03125v15.027344h-15.03125zm0 0"/><path d="m142.777344 30.058594c-62.152344 0-112.71875 50.566406-112.71875 112.71875v226.445312c0 62.152344 50.566406 112.71875 112.71875 112.71875 62.15625 0 112.722656-50.566406 112.722656-112.71875v-226.445312c0-62.152344-50.566406-112.71875-112.722656-112.71875zm0 15.03125c12.527344 0 24.503906 2.371094 35.519531 6.683594-10.445313 8.871093-23.019531 16.777343-35.519531 24.417968-12.5-7.640625-25.070313-15.546875-35.515625-24.417968 11.011719-4.3125 22.992187-6.683594 35.515625-6.683594zm62.265625 132.257812c-.996094 9.417969-4.050781 17.648438-8.617188 25.046875h-107.296875c-4.5625-7.398437-7.617187-15.628906-8.613281-25.046875h22.183594v-15.03125h-22.011719c1.203125-9.425781 4.476562-17.65625 9.28125-25.046875h105.621094c4.804687 7.390625 8.078125 15.621094 9.28125 25.046875h-22.015625v15.03125zm-.171875 172.335938c-1.207032 9.425781-4.480469 17.65625-9.285156 25.046875h-105.613282c-4.804687-7.390625-8.078125-15.621094-9.285156-25.046875h22.015625v-15.03125h-22.1875c.992187-9.417969 4.046875-17.648438 8.609375-25.046875h107.308594c4.5625 7.398437 7.617187 15.628906 8.609375 25.046875h-22.1875v15.03125zm-22.0625 40.078125c-11.121094 10.488281-25.285156 19.425781-40.03125 28.4375-14.742188-9.011719-28.90625-17.949219-40.027344-28.4375zm-81.4375-95.1875c11.316406-11.066407 26.042968-20.382813 41.40625-29.773438 15.363281 9.390625 30.09375 18.707031 41.410156 29.773438zm.003906-77.148438h82.808594c-11.316406 11.066407-26.042969 20.378907-41.402344 29.769531-15.363281-9.390624-30.089844-18.703124-41.40625-29.769531zm1.375-95.1875c11.117188-10.488281 25.285156-19.425781 40.027344-28.4375 14.746094 9.011719 28.910156 17.949219 40.03125 28.4375zm-57.660156 246.984375v-226.445312c0-35.578125 19.117187-66.769532 47.621094-83.851563 10.449218 9.777344 22.964843 18.152344 35.699218 26.070313-32.65625 20.296875-63.28125 43.042968-63.28125 85.496094 0 42.457031 30.625 65.207031 63.28125 85.507812-32.65625 20.296875-63.28125 43.042969-63.28125 85.496094 0 42.460937 30.625 65.210937 63.28125 85.507812-12.734375 7.917969-25.25 16.292969-35.699218 26.070313-28.503907-17.082031-47.621094-48.273438-47.621094-83.851563zm97.6875 97.6875c-12.523438 0-24.503906-2.371094-35.515625-6.683594 10.445312-8.871093 23.015625-16.777343 35.515625-24.417968 12.5 7.640625 25.074218 15.546875 35.519531 24.417968-11.015625 4.3125-22.992187 6.683594-35.519531 6.683594zm97.691406-97.6875c0 35.578125-19.121094 66.769532-47.621094 83.851563-10.449218-9.777344-22.96875-18.152344-35.703125-26.070313 32.660157-20.296875 63.285157-43.046875 63.285157-85.507812 0-42.453125-30.625-65.199219-63.28125-85.496094 32.65625-20.300781 63.28125-43.050781 63.28125-85.507812 0-42.453126-30.625-65.199219-63.285157-85.496094 12.734375-7.921875 25.253907-16.296875 35.703125-26.070313 28.5 17.082031 47.621094 48.273438 47.621094 83.851563zm0 0"/><path d="m464.40625 133.109375-40.078125 23.042969-32.5625-18.722656v-35.730469h-15.03125v35.730469l-32.300781 18.574218-31.203125-20.507812-8.253907 12.558594 31.679688 20.820312v37.984375l-31.679688 20.816406 8.253907 12.5625 31.203125-20.507812 39.816406 22.894531 40.078125-23.046875 32.5625 18.726563v35.730468h15.03125v-35.730468l40.078125-23.046876v-54.785156zm-47.59375 73.453125-32.5625 18.726562-32.5625-18.726562v-37.394531l32.5625-18.722657 32.5625 18.722657zm80.15625 0-32.5625 18.726562-32.5625-18.726562v-37.394531l32.5625-18.722657 32.5625 18.722657zm0 0"/><path d="m391.765625 72.140625h15.027344v15.03125h-15.027344zm0 0"/><path d="m361.707031 72.140625h15.027344v15.03125h-15.027344zm0 0"/><path d="m441.863281 288.5625h15.027344v15.03125h-15.027344zm0 0"/><path d="m471.921875 288.5625h15.027344v15.03125h-15.027344zm0 0"/><path d="m337.898438 318.621094h-52.339844v-175.84375c0-18.496094-3.488282-36.496094-10.367188-53.503906l-13.933594 5.636718c6.152344 15.207032 9.269532 31.3125 9.269532 47.867188v226.445312c0 70.441406-57.308594 127.746094-127.75 127.746094s-127.746094-57.304688-127.746094-127.746094v-18.445312h-15.03125v18.445312c0 78.726563 64.050781 142.777344 142.777344 142.777344 78.730468 0 142.78125-64.050781 142.78125-142.777344v-35.570312h58.878906l43.308594-46.476563-10.996094-10.25zm0 0"/><path d="m456.890625 180.351562h15.03125v15.03125h-15.03125zm0 0"/><path d="m376.734375 180.351562h15.03125v15.03125h-15.03125zm0 0"/><path d="m150.292969 162.316406h15.03125v15.03125h-15.03125zm0 0"/><path d="m120.234375 162.316406h15.03125v15.03125h-15.03125zm0 0"/><path d="m120.234375 334.652344h15.03125v15.03125h-15.03125zm0 0"/><path d="m150.292969 334.652344h15.03125v15.03125h-15.03125zm0 0"/></svg>