<svg height="512pt" viewBox="0 0 512 512" width="512pt" xmlns="http://www.w3.org/2000/svg"><path d="m483.945312 440.859375v-201.035156h-15.03125v201.035156h-62.335937v15.03125h90.390625v18.535156c0 12.429688-10.113281 22.542969-22.542969 22.542969h-329.785156v15.03125h329.785156c20.71875 0 37.574219-16.855469 37.574219-37.574219v-33.566406zm0 0"/><path d="m15.03125 474.425781v-18.535156h163.667969c3.054687 8.183594 10.953125 14.027344 20.1875 14.027344h114.226562c9.234375 0 17.132813-5.84375 20.1875-14.027344h58.25v-15.03125h-71.925781v7.515625c0 3.589844-2.921875 6.511719-6.511719 6.511719h-114.226562c-3.589844 0-6.511719-2.921875-6.511719-6.511719v-7.515625h-149.289062v-283.050781c0-12.429688 10.109374-22.542969 22.542968-22.542969h8.015625v-15.03125h-8.015625c-20.71875 0-37.574218 16.855469-37.574218 37.574219v283.050781h-28.054688v33.566406c0 20.71875 16.855469 37.574219 37.574219 37.574219h92.035156v-15.03125h-92.035156c-12.433594 0-22.542969-10.113281-22.542969-22.542969zm0 0"/><path d="m468.914062 157.808594v66.988281h15.03125v-66.988281c0-20.71875-16.855468-37.574219-37.574218-37.574219h-146.285156v15.03125h146.285156c12.429687 0 22.542968 10.113281 22.542968 22.542969zm0 0"/><path d="m126.746094 120.234375h120.234375v15.03125h-120.234375zm0 0"/><path d="m161.816406 160.3125h50.097656v15.03125h-50.097656zm0 0"/><path d="m88.671875 175.34375v-15.03125h-30.558594v255.5h53.605469v-15.03125h-38.574219v-225.4375zm0 0"/><path d="m438.855469 400.78125h-312.109375v15.03125h327.140625v-255.5h-168.828125v15.03125h153.796875zm0 0"/><path d="m371.226562 295.578125c29.003907 0 52.601563-23.597656 52.601563-52.605469 0-29.003906-23.597656-52.601562-52.601563-52.601562-29.007812 0-52.605468 23.597656-52.605468 52.601562 0 29.007813 23.597656 52.605469 52.605468 52.605469zm0-90.175781c20.71875 0 37.570313 16.855468 37.570313 37.570312 0 20.71875-16.851563 37.574219-37.570313 37.574219s-37.574218-16.855469-37.574218-37.574219c0-20.714844 16.855468-37.570312 37.574218-37.570312zm0 0"/><path d="m186.863281 205.402344c53.867188 0 97.691407-43.824219 97.691407-97.691406v-92.679688h-30.058594v-15.03125h-45.085938v45.089844h45.085938v-15.03125h15.03125v77.652344c0 45.578124-37.082032 82.660156-82.664063 82.660156-45.578125 0-82.660156-37.082032-82.660156-82.660156v-77.652344h15.03125v15.03125h45.085937v-45.089844h-45.085937v15.03125h-30.058594v92.679688c0 53.867187 43.820313 97.691406 97.6875 97.691406zm52.605469-175.34375h-15.03125v-15.027344h15.03125zm-105.207031-15.027344h15.03125v15.027344h-15.03125zm0 0"/><path d="m179.351562 346.175781c0 21.269531 17.304688 38.574219 38.574219 38.574219s38.574219-17.304688 38.574219-38.574219v-28.054687c0-12.429688 10.113281-22.542969 22.546875-22.542969 12.429687 0 22.542969 10.113281 22.542969 22.542969v19.039062c0 21.269532 17.304687 38.574219 38.574218 38.574219 21.269532 0 38.574219-17.304687 38.574219-38.574219v-27.054687h-15.027343v27.054687c0 12.980469-10.5625 23.542969-23.546876 23.542969-12.984374 0-23.546874-10.5625-23.546874-23.542969v-19.039062c0-20.71875-16.855469-37.574219-37.570313-37.574219-20.71875 0-37.574219 16.855469-37.574219 37.574219v28.054687c0 12.984375-10.5625 23.546875-23.546875 23.546875s-23.546875-10.5625-23.546875-23.546875v-67.128906h-15.027344zm0 0"/><path d="m79.65625 468.914062h50.097656v15.03125h-50.097656zm0 0"/><path d="m49.597656 468.914062h15.027344v15.03125h-15.027344zm0 0"/><path d="m179.351562 248.984375h15.027344v15.03125h-15.027344zm0 0"/><path d="m179.351562 218.925781h15.027344v15.03125h-15.027344zm0 0"/><path d="m363.710938 235.460938h15.027343v15.027343h-15.027343zm0 0"/></svg>