<svg height="512pt" viewBox="-33 0 511 512" width="512pt" xmlns="http://www.w3.org/2000/svg"><path d="m406.292969 417.414062v-123.339843c0-20.71875-16.855469-37.574219-37.574219-37.574219h-18.535156v-75.144531h29.558594c12.429687 0 22.542968-10.113281 22.542968-22.546875 0-12.429688-10.113281-22.542969-22.542968-22.542969h-66.988282v15.03125h66.988282c4.144531 0 7.511718 3.371094 7.511718 7.511719 0 4.144531-3.367187 7.515625-7.511718 7.515625h-198.890626v-15.027344h116.871094v-15.03125h-116.871094v-52.953125h-15.027343v113.269531c-2.5-.117187-5.003907-.199219-7.515625-.199219-20.320313 0-39.757813 3.863282-57.613282 10.890626v-192.242188h22.542969c23.480469 0 42.585938 19.101562 42.585938 42.582031v10.671875h15.027343v-10.671875c0-31.769531-25.84375-57.613281-57.613281-57.613281h-95.183593c-15.195313 0-27.554688 12.359375-27.554688 27.554688 0 15.191406 12.359375 27.554687 27.554688 27.554687h57.613281v159.019531c-50.558594 26.328125-85.167969 79.226563-85.167969 140.0625 0 23.65625 5.109375 46.40625 15.183594 67.621094l13.574218-6.449219c-9.109374-19.183593-13.730468-39.765625-13.726562-61.171875 0-78.726562 64.046875-142.777344 142.777344-142.777344 28.214844 0 55.496094 8.214844 78.894531 23.757813l8.316406-12.519531c-19.570312-13-41.601562-21.355469-64.667969-24.65625v-16.640625h154.300782v75.144531h-52.886719c-7.035156-8.90625-15.074219-17.125-24.0625-24.480469l-9.519531 11.628907c33.304687 27.261718 52.40625 67.554687 52.402344 110.542968 0 78.726563-64.050782 142.777344-142.777344 142.777344-50.449219 0-96.167969-25.808594-122.292969-69.039062l-12.863281 7.769531c13.804687 22.84375 33.320312 41.964843 56.433594 55.292969 23.835937 13.742187 51.058593 21.007812 78.722656 21.007812 87.015625 0 157.808594-70.792969 157.808594-157.808594 0-.835937-.023438-1.667968-.035157-2.503906h75.179688v65.726562c-22.683594 3.613282-40.078125 23.308594-40.078125 46.992188 0 26.242188 21.351562 47.59375 47.59375 47.59375 26.242187 0 47.59375-21.351562 47.59375-47.59375 0-23.683594-17.394532-43.378906-40.078125-46.992188zm-320.625-377.335937h-57.613281c-6.90625 0-12.523438-5.617187-12.523438-12.523437s5.617188-12.523438 12.523438-12.523438h57.613281zm229.480469 296.578125c-2.574219-23.28125-10.253907-45.464844-22.363282-65.125h75.933594c12.429688 0 22.542969 10.113281 22.542969 22.542969v42.582031zm83.628906 160.3125c-17.957032 0-32.5625-14.605469-32.5625-32.5625s14.605468-32.5625 32.5625-32.5625c17.957031 0 32.5625 14.605469 32.5625 32.5625s-14.605469 32.5625-32.5625 32.5625zm0 0"/><path d="m158.308594 481.941406c70.441406 0 127.75-57.308594 127.75-127.75s-57.308594-127.75-127.75-127.75-127.75 57.308594-127.75 127.75 57.308594 127.75 127.75 127.75zm-7.515625-15.285156c-25.433594-1.683594-48.585938-11.835938-66.660157-27.664062l46.277344-46.277344c5.921875 4.296875 12.859375 7.269531 20.382813 8.472656zm15.03125 0v-65.46875c7.523437-1.203125 14.460937-4.171875 20.378906-8.472656l46.277344 46.277344c-18.070313 15.828124-41.222657 25.980468-66.65625 27.664062zm77.285156-38.289062-46.277344-46.277344c4.296875-5.921875 7.269531-12.859375 8.46875-20.382813h65.472657c-1.683594 25.433594-11.835938 48.585938-27.664063 66.660157zm27.664063-81.691407h-65.472657c-1.199219-7.523437-4.171875-14.460937-8.46875-20.378906l46.277344-46.277344c15.828125 18.070313 25.980469 41.222657 27.664063 66.65625zm-104.949219-104.949219c25.433593 1.683594 48.585937 11.835938 66.65625 27.664063l-46.277344 46.277344c-5.917969-4.296875-12.855469-7.269531-20.378906-8.46875zm25.046875 112.464844c0 17.957032-14.605469 32.5625-32.5625 32.5625-17.957032 0-32.5625-14.605468-32.5625-32.5625 0-17.957031 14.605468-32.5625 32.5625-32.5625 17.957031 0 32.5625 14.605469 32.5625 32.5625zm-40.078125-112.464844v65.472657c-7.523438 1.199219-14.460938 4.171875-20.382813 8.46875l-46.277344-46.277344c18.074219-15.828125 41.226563-25.980469 66.660157-27.664063zm-77.285157 38.292969 46.277344 46.277344c-4.296875 5.917969-7.269531 12.855469-8.472656 20.378906h-65.46875c1.683594-25.433593 11.835938-48.585937 27.664062-66.65625zm37.804688 81.6875c1.203125 7.523438 4.175781 14.460938 8.472656 20.382813l-46.277344 46.277344c-15.828124-18.074219-25.980468-41.226563-27.664062-66.660157zm0 0"/><path d="m135.765625 142.777344h15.027344v15.03125h-15.027344zm0 0"/><path d="m135.765625 112.71875h15.027344v15.03125h-15.027344zm0 0"/><path d="m135.765625 57.613281h15.027344v40.078125h-15.027344zm0 0"/><path d="m391.261719 456.890625h15.03125v15.03125h-15.03125zm0 0"/><path d="m150.792969 346.675781h15.03125v15.03125h-15.03125zm0 0"/></svg>