<svg height="512pt" viewBox="-68 0 512 512" width="512pt" xmlns="http://www.w3.org/2000/svg"><path d="m0 0v248.121094h15.03125v-233.089844h345.671875v92.679688h15.03125v-107.710938zm0 0"/><path d="m360.703125 496.96875h-71.636719v15.03125h86.667969v-389.261719h-15.03125zm0 0"/><path d="m95.1875 416.8125h-80.15625v-153.660156h-15.03125v164.289062l84.558594 84.558594h189.476562v-15.03125h-178.847656zm-15.03125 69.53125-54.5-54.5h54.5zm0 0"/><path d="m255.5 40.078125v25.050781h-25.050781v55.105469h25.050781v25.050781h55.105469v-25.050781h25.050781v-55.105469h-25.050781v-25.050781zm65.125 40.078125v25.050781h-25.046875v25.046875h-25.050781v-25.046875h-25.046875v-25.050781h25.046875v-25.046875h25.050781v25.046875zm0 0"/><path d="m105.207031 119.734375c0-15.191406-12.363281-27.554687-27.554687-27.554687h-37.574219v87.671874h15.03125v-32.5625h17.425781l17.140625 32.5625h16.03125l-18.117187-34.425781c10.292968-3.996093 17.617187-14.003906 17.617187-25.691406zm-27.554687 12.523437h-22.542969v-25.046874h22.542969c6.90625 0 12.523437 5.617187 12.523437 12.523437s-5.617187 12.523437-12.523437 12.523437zm0 0"/><path d="m125.746094 229.949219 22.042968-31.59375 22.042969 31.59375h16.03125l-30.058593-43.085938 30.058593-43.082031h-16.03125l-22.042969 31.59375-22.042968-31.59375h-16.03125l30.058594 43.082031-30.058594 43.085938zm0 0"/><path d="m240.96875 435.851562h15.03125v15.027344h-15.03125zm0 0"/><path d="m301.089844 435.851562h15.027344v15.027344h-15.027344zm0 0"/><path d="m271.03125 435.851562h15.027344v15.027344h-15.027344zm0 0"/><path d="m142.777344 269.527344h50.097656v15.027344h-50.097656zm0 0"/><path d="m67.632812 269.527344h60.117188v15.027344h-60.117188zm0 0"/><path d="m207.90625 269.527344h70.136719v15.027344h-70.136719zm0 0"/><path d="m293.074219 269.527344h15.027343v15.027344h-15.027343zm0 0"/><path d="m67.632812 299.585938h50.097657v15.027343h-50.097657zm0 0"/><path d="m132.757812 299.585938h70.136719v15.027343h-70.136719zm0 0"/><path d="m217.925781 299.585938h15.027344v15.027343h-15.027344zm0 0"/><path d="m247.984375 299.585938h60.117187v15.027343h-60.117187zm0 0"/><path d="m67.632812 329.644531h90.175782v15.027344h-90.175782zm0 0"/><path d="m232.953125 329.644531h75.148437v15.027344h-75.148437zm0 0"/><path d="m172.835938 329.644531h15.03125v15.027344h-15.03125zm0 0"/><path d="m202.894531 329.644531h15.03125v15.027344h-15.03125zm0 0"/><path d="m167.828125 359.703125h70.136719v15.027344h-70.136719zm0 0"/><path d="m67.632812 359.703125h55.105469v15.027344h-55.105469zm0 0"/><path d="m137.769531 359.703125h15.027344v15.027344h-15.027344zm0 0"/></svg>