<svg height="512pt" viewBox="-73 0 512 512" width="512pt" xmlns="http://www.w3.org/2000/svg"><path d="m350.683594 388.257812c0 29.003907-23.597656 52.601563-52.601563 52.601563h-46.089843v15.03125h46.089843c37.292969 0 67.632813-30.339844 67.632813-67.632813v-230.160156h-15.03125zm0 0"/><path d="m298.082031 0h-200.820312v15.03125h200.820312c29.003907 0 52.601563 23.597656 52.601563 52.601562v75.433594h15.03125v-75.433594c0-37.292968-30.339844-67.632812-67.632813-67.632812zm0 0"/><path d="m15.03125 67.632812c0-29.003906 23.597656-52.601562 52.601562-52.601562h14.601563v-15.03125h-14.601563c-37.292968 0-67.632812 30.339844-67.632812 67.632812v261.648438h15.03125zm0 0"/><path d="m15.03125 388.257812v-43.945312h-15.03125v43.945312c0 37.292969 30.339844 67.632813 67.632812 67.632813h46.089844v-15.03125h-46.089844c-29.003906 0-52.601562-23.597656-52.601562-52.601563zm0 0"/><path d="m40.078125 285.558594h52.601563v-15.03125h-37.570313v-205.398438h255.496094v205.398438h-202.894531v15.03125h217.925781v-235.460938h-285.558594zm0 0"/><path d="m225.441406 355.695312v-55.109374h-85.167968v55.109374zm-70.136718-40.078124h55.105468v25.046874h-55.105468zm0 0"/><path d="m35.070312 328.140625c0 15.191406 12.359376 27.554687 27.550782 27.554687h57.613281v-55.109374h-57.613281c-15.191406 0-27.550782 12.363281-27.550782 27.554687zm70.136719 12.523437h-42.585937c-6.90625 0-12.523438-5.617187-12.523438-12.523437s5.617188-12.523437 12.523438-12.523437h42.585937zm0 0"/><path d="m303.09375 300.585938h-57.613281v55.109374h57.613281c15.191406 0 27.550781-12.363281 27.550781-27.554687s-12.359375-27.554687-27.550781-27.554687zm0 40.078124h-42.585938v-25.046874h42.585938c6.90625 0 12.523438 5.617187 12.523438 12.523437s-5.617188 12.523437-12.523438 12.523437zm0 0"/><path d="m182.855469 111.527344 20.714843 32.015625 12.617188-8.164063-33.332031-51.523437-48.597657 75.121093c-5.898437 9.117188-9.015624 19.507813-9.015624 30.042969 0 31.132813 25.847656 56.460938 57.613281 56.460938 31.769531 0 57.613281-25.328125 57.613281-56.460938 0-10.539062-3.113281-20.925781-9.015625-30.042969l-6.554687-10.136718-12.621094 8.164062 6.558594 10.136719c4.382812 6.773437 6.605468 14.132813 6.605468 21.878906 0 19.925781-16.28125 41.429688-42.585937 41.429688-26.300781 0-42.582031-21.503907-42.582031-41.429688 0-7.632812 2.28125-15.199219 6.605468-21.878906zm0 0"/><path d="m252.992188 376.734375h-140.273438v15.03125h17.535156v120.234375h105.207032v-120.234375h17.53125zm-32.5625 120.234375h-75.144532v-55.105469h75.144532zm0-70.136719h-75.144532v-35.066406h75.144532zm0 0"/><path d="m227.945312 80.15625h15.027344v15.03125h-15.027344zm0 0"/><path d="m280.546875 132.757812h15.03125v15.03125h-15.03125zm0 0"/><path d="m295.578125 80.15625h-37.574219v15.03125h22.542969v22.542969h15.03125zm0 0"/><path d="m160.3125 461.902344h15.03125v15.027344h-15.03125zm0 0"/><path d="m190.371094 461.902344h15.03125v15.027344h-15.03125zm0 0"/></svg>