<svg height="512pt" viewBox="-94 0 512 512" width="512pt" xmlns="http://www.w3.org/2000/svg"><path d="m209.796875 412.097656h14.984375v99.902344h-14.984375zm0 0"/><path d="m309.699219 349.660156h-294.714844v-42.460937h-14.984375v57.445312h99.902344v147.355469h14.984375v-147.355469h39.960937v147.355469h14.988282v-147.355469h39.960937v32.46875h14.984375v-32.46875h99.902344v-167.335937h-14.984375zm0 0"/><path d="m261.40625 139.863281c-4.300781-8.175781-11.46875-14.5-20.292969-17.71875l-41.660156-15.199219c6.464844-8.109374 10.34375-18.367187 10.34375-29.519531v-29.972656c0-26.164063-21.289063-47.453125-47.457031-47.453125-26.164063 0-47.453125 21.289062-47.453125 47.453125v29.972656c0 11.152344 3.878906 21.410157 10.34375 29.519531l-41.664063 15.199219c-8.824218 3.21875-15.988281 9.542969-20.289062 17.71875h-63.277344v152.351563h14.984375v-137.367188h294.714844v27.472656h14.984375v-42.457031zm-99.066406-124.878906c17.90625 0 32.46875 14.566406 32.46875 32.46875v8.050781l-18.78125-15.542968h-45.273438c3.394532-14.300782 16.261719-24.976563 31.585938-24.976563zm-32.464844 39.960937h40.757812l24.175782 20.011719v2.46875c0 17.902344-14.5625 32.46875-32.46875 32.46875-17.902344 0-32.464844-14.566406-32.464844-32.46875zm-47.617188 84.917969c1.90625-1.539062 4.078126-2.777343 6.445313-3.640625l49.398437-18.023437c7.101563 4.234375 15.386719 6.679687 24.238282 6.679687 8.851562 0 17.140625-2.445312 24.242187-6.679687l49.398438 18.023437c2.367187.863282 4.535156 2.097656 6.445312 3.640625zm0 0"/><path d="m154.847656 226.777344h14.988282v14.988281h-14.988282zm0 0"/><path d="m89.414062 226.777344h49.949219v14.988281h-49.949219zm0 0"/><path d="m185.320312 226.777344h49.949219v14.988281h-49.949219zm0 0"/><path d="m154.847656 196.808594h14.988282v14.984375h-14.988282zm0 0"/><path d="m89.414062 196.808594h49.949219v14.984375h-49.949219zm0 0"/><path d="m185.320312 196.808594h49.949219v14.984375h-49.949219zm0 0"/><path d="m154.847656 257.75h14.988282v14.984375h-14.988282zm0 0"/><path d="m99.402344 257.75h39.960937v14.984375h-39.960937zm0 0"/><path d="m185.320312 257.75h39.960938v14.984375h-39.960938zm0 0"/><path d="m154.847656 287.71875h14.988282v14.984375h-14.988282zm0 0"/><path d="m119.382812 287.71875h19.980469v14.984375h-19.980469zm0 0"/><path d="m185.320312 287.71875h19.980469v14.984375h-19.980469zm0 0"/><path d="m154.847656 317.691406h14.988282v14.984375h-14.988282zm0 0"/><path d="m154.847656 166.835938h14.988282v14.988281h-14.988282zm0 0"/></svg>