<svg height="512pt" viewBox="0 -78 512 512" width="512pt" xmlns="http://www.w3.org/2000/svg"><path d="m171.5 271.5c0 12.40625 10.09375 22.5 22.5 22.5h54.855469v-15h-54.855469c-4.136719 0-7.5-3.363281-7.5-7.5s3.363281-7.5 7.5-7.5h318v-15h-318c-12.40625 0-22.5 10.09375-22.5 22.5zm0 0"/><path d="m263.855469 279h248.144531v15h-248.144531zm0 0"/><path d="m108 40h-12.5v-12.5c0-15.164062-12.335938-27.5-27.5-27.5h-68v15h68c6.894531 0 12.5 5.605469 12.5 12.5v300c0 6.894531-5.605469 12.5-12.5 12.5h-68v15h68c15.164062 0 27.5-12.335938 27.5-27.5v-12.5h12.5c20.679688 0 37.5-16.820312 37.5-37.5v-79.144531h-15v79.144531c0 12.40625-10.09375 22.5-22.5 22.5h-12.5v-245h12.5c12.40625 0 22.5 10.09375 22.5 22.5v75.855469h15v-75.855469c0-20.679688-16.820312-37.5-37.5-37.5zm0 0"/><path d="m130.5 168.355469h15v15h-15zm0 0"/><path d="m399.855469 119h112.144531v15h-112.144531zm0 0"/><path d="m467 89h15v15h-15zm0 0"/><path d="m401 89h51v15h-51zm0 0"/><path d="m487 59h15v15h-15zm0 0"/><path d="m421 59h51v15h-51zm0 0"/><path d="m365 194h38.5v25h-41.5c-23.433594 0-42.5-19.066406-42.5-42.5s19.066406-42.5 42.5-42.5h22.855469v-15h-22.855469c-22.019531 0-41.175781 12.445312-50.832031 30.667969-8.570313-12.472657-22.929688-20.667969-39.167969-20.667969h-20c-26.191406 0-47.5 21.308594-47.5 47.5s21.308594 47.5 47.5 47.5h20c16.238281 0 30.597656-8.195312 39.167969-20.667969 9.65625 18.222657 28.8125 30.667969 50.832031 30.667969h150v-15h-93.5v-25h93.5v-15h-147zm-93 15h-20c-17.921875 0-32.5-14.578125-32.5-32.5s14.578125-32.5 32.5-32.5h20c17.921875 0 32.5 14.578125 32.5 32.5s-14.578125 32.5-32.5 32.5zm0 0"/><path d="m50.5 127.5h15v15h-15zm0 0"/><path d="m50.5 242.5h15v40h-15zm0 0"/><path d="m50.5 212.5h15v15h-15zm0 0"/><path d="m50.5 157.5h15v40h-15zm0 0"/><path d="m50.5 72.5h15v40h-15zm0 0"/></svg>