<svg height="512pt" viewBox="0 0 512 512" width="512pt" xmlns="http://www.w3.org/2000/svg"><path d="m512 134.761719v-82.660157h-110.214844v-14.527343c0-20.71875-16.855468-37.574219-37.574218-37.574219h-246.480469c-20.71875 0-37.574219 16.855469-37.574219 37.574219v54.605469h-42.582031c-20.71875 0-37.574219 16.855468-37.574219 37.574218v112.363282h15.03125v-112.363282c0-12.429687 10.109375-22.542968 22.542969-22.542968h100.195312c12.429688 0 22.542969 10.113281 22.542969 22.542968v23.617188h15.03125v-23.617188c0-20.71875-16.855469-37.574218-37.574219-37.574218h-42.582031v-54.605469c0-12.429688 10.109375-22.542969 22.542969-22.542969h246.480469c12.433593 0 22.542968 10.113281 22.542968 22.542969v14.527343h-110.214844v182.855469h15.03125v-127.746093h57.613282v-15.03125h-57.613282v-25.046876h145.28125v265.515626h-145.28125v-25.046876h120.234376v-215.421874h-47.59375v15.03125h32.5625v185.359374h-105.203126v-42.582031h-15.03125v97.691407h235.460938v-197.886719h-15.03125v142.777343h-45.085938v-185.359374h45.085938v27.550781zm-15.03125 172.839843v25.046876h-45.085938v-25.046876zm-45.085938-215.421874v-25.046876h45.085938v25.046876zm0 0"/><path d="m30.058594 207.40625h115.226562v-75.148438h-115.226562zm15.03125-60.117188h85.164062v45.085938h-85.164062zm0 0"/><path d="m362.777344 395.414062c-20.074219-12.042968-46.609375-18.679687-74.714844-18.679687-39.355469 0-74.835938 12.972656-93.796875 34.066406h-43.972656v25.050781h-32.5625c-12.433594 0-22.542969-10.113281-22.542969-22.542968v-105.707032h42.582031c20.71875 0 37.574219-16.855468 37.574219-37.574218v-101.625h-15.03125v101.625c0 12.429687-10.113281 22.542968-22.542969 22.542968h-100.195312c-12.433594 0-22.542969-10.113281-22.542969-22.542968v-12.882813h-15.03125v12.882813c0 20.71875 16.855469 37.574218 37.574219 37.574218h42.582031v105.707032c0 20.71875 16.855469 37.570312 37.574219 37.570312h32.5625v25.050782h42.253906c18.304687 22.023437 55.210937 36.070312 95.515625 36.070312 28.105469 0 54.640625-6.632812 74.714844-18.679688 21.277344-12.765624 32.996094-30.152343 32.996094-48.953124 0-18.800782-11.71875-36.1875-32.996094-48.953126zm-7.730469 85.019532c-17.773437 10.664062-41.5625 16.535156-66.984375 16.535156-37.515625 0-71.183594-12.945312-85.777344-32.976562l-2.25-3.09375h-34.710937v-35.066407h36.019531l2.253906-2.8125c15.238282-18.988281 48.394532-31.253906 84.464844-31.253906 25.421875 0 49.210938 5.871094 66.984375 16.535156 16.570313 9.945313 25.695313 22.753907 25.695313 36.066407 0 13.316406-9.125 26.121093-25.695313 36.066406zm0 0"/><path d="m95.1875 162.316406h15.027344v15.03125h-15.027344zm0 0"/><path d="m65.128906 162.316406h15.027344v15.03125h-15.027344zm0 0"/><path d="m117.730469 222.433594h30.058593v15.03125h-30.058593zm0 0"/><path d="m72.640625 222.433594h30.058594v15.03125h-30.058594zm0 0"/><path d="m27.554688 222.433594h30.058593v15.03125h-30.058593zm0 0"/><path d="m27.554688 252.492188h30.058593v15.03125h-30.058593zm0 0"/><path d="m72.640625 252.492188h30.058594v15.03125h-30.058594zm0 0"/><path d="m117.730469 252.492188h30.058593v15.03125h-30.058593zm0 0"/><path d="m297.546875 422.15625c4.796875.34375 9.515625.953125 14.019531 1.816406l2.824219-14.761718c-5.082031-.972657-10.390625-1.660157-15.773437-2.042969zm0 0"/><path d="m325.109375 427.496094c9.835937 3.320312 16.007813 7.214844 19.453125 9.898437l9.238281-11.855469c-6.261719-4.875-14.519531-9.121093-23.886719-12.285156zm0 0"/></svg>