<svg height="512pt" viewBox="0 -18 512 512" width="512pt" xmlns="http://www.w3.org/2000/svg"><path d="m474.425781 0h-95.617187v15.03125h95.617187c12.429688 0 22.542969 10.113281 22.542969 22.542969v77.578125h15.03125v-77.578125c0-20.71875-16.855469-37.574219-37.574219-37.574219zm0 0"/><path d="m496.96875 270.527344h-323.128906v15.03125h323.128906v42.582031c0 12.429687-10.113281 22.542969-22.542969 22.542969h-366v15.03125h78.792969l-7.875 55.105468h-23.539062c-15.191407 0-27.554688 12.363282-27.554688 27.554688v27.554688h255.5v-27.554688c0-15.191406-12.363281-27.554688-27.554688-27.554688h-23.539062l-7.875-55.105468h149.644531c20.71875 0 37.574219-16.855469 37.574219-37.574219v-197.957031h-15.03125zm-140.773438 165.324218c6.90625 0 12.523438 5.617188 12.523438 12.523438v12.523438h-225.4375v-12.523438c0-6.90625 5.617188-12.523438 12.523438-12.523438h66.558593v-15.03125h-27.835937l7.871094-55.105468h107.203124l7.871094 55.105468h-80.082031v15.03125zm0 0"/><path d="m15.03125 328.140625v-42.582031h143.777344v-15.03125h-143.777344v-232.953125c0-12.429688 10.113281-22.542969 22.542969-22.542969h326.207031v-15.03125h-326.207031c-20.71875 0-37.574219 16.855469-37.574219 37.574219v290.566406c0 20.71875 16.855469 37.574219 37.574219 37.574219h55.824219v-15.03125h-55.824219c-12.429688 0-22.542969-10.113282-22.542969-22.542969zm0 0"/><path d="m296.578125 215.421875h175.34375v-175.34375h-175.34375zm130.253906-15.03125h-85.164062v-24.546875c0-15.90625 8.679687-30.183594 22.46875-37.542969 5.542969 4.367188 12.523437 6.984375 20.113281 6.984375s14.574219-2.617187 20.117188-6.984375c13.785156 7.359375 22.464843 21.636719 22.464843 37.542969zm-60.117187-87.671875v-10.019531c0-9.667969 7.867187-17.53125 17.535156-17.53125s17.535156 7.863281 17.535156 17.53125v10.019531c0 9.667969-7.867187 17.535156-17.535156 17.535156s-17.535156-7.867187-17.535156-17.535156zm-55.105469-57.609375h145.28125v145.28125h-15.027344v-24.546875c0-20.609375-10.769531-39.191406-28.058593-49.472656 1.925781-4.15625 3.007812-8.777344 3.007812-13.652344v-10.019531c0-17.953125-14.605469-32.5625-32.5625-32.5625s-32.5625 14.609375-32.5625 32.5625v10.019531c0 4.875 1.082031 9.496094 3.007812 13.652344-17.289062 10.28125-28.058593 28.863281-28.058593 49.472656v24.546875h-15.027344zm0 0"/><path d="m135.265625 65.128906h-25.050781v-25.050781h-45.085938v25.050781h-25.050781v45.085938h25.050781v25.050781h45.085938v-25.050781h25.050781zm-15.03125 30.058594h-25.046875v25.046875h-15.03125v-25.046875h-25.046875v-15.03125h25.046875v-25.046875h15.03125v25.046875h25.046875zm0 0"/><path d="m248.484375 310.605469h15.03125v15.03125h-15.03125zm0 0"/><path d="m127.75 163.320312h50.097656v15.027344h-50.097656zm0 0"/><path d="m192.875 163.320312h60.117188v15.027344h-60.117188zm0 0"/><path d="m52.601562 163.320312h60.117188v15.027344h-60.117188zm0 0"/><path d="m187.867188 80.15625h15.027343v15.03125h-15.027343zm0 0"/><path d="m157.808594 80.15625h15.027344v15.03125h-15.027344zm0 0"/><path d="m217.925781 80.15625h15.027344v15.03125h-15.027344zm0 0"/><path d="m137.769531 193.378906h40.078125v15.027344h-40.078125zm0 0"/><path d="m107.710938 193.378906h15.027343v15.027344h-15.027343zm0 0"/><path d="m52.601562 193.378906h40.078126v15.027344h-40.078126zm0 0"/><path d="m192.875 193.378906h15.03125v15.027344h-15.03125zm0 0"/><path d="m222.933594 193.378906h30.058594v15.027344h-30.058594zm0 0"/><path d="m167.828125 223.4375h15.027344v15.027344h-15.027344zm0 0"/><path d="m137.769531 223.4375h15.027344v15.027344h-15.027344zm0 0"/><path d="m52.601562 223.4375h70.136719v15.027344h-70.136719zm0 0"/></svg>