<svg height="512pt" viewBox="0 0 512 512" width="512pt" xmlns="http://www.w3.org/2000/svg"><path d="m221.433594 15.03125h214.832031v-15.03125h-229.863281v135.851562h15.03125zm0 0"/><path d="m451.292969 0v15.03125h45.675781v175.339844h-96.320312l-122.105469 55.925781v-55.925781h-57.109375v-39.488282h-15.03125v54.519532h57.113281v64.308594l140.410156-64.308594h108.074219v-205.402344zm0 0"/><path d="m48.199219 225.140625 60.222656-60.222656 142.214844 142.214843 21.253906 63.761719 47.863281 47.863281 10.628906-10.625-45.355468-45.355468-21.253906-63.765625-171.292969-171.289063c-7.09375-7.097656-16.53125-11.003906-26.570313-11.003906-10.03125 0-19.46875 3.90625-26.566406 11.003906l-28.339844 28.339844c-7.09375 7.09375-11.003906 16.53125-11.003906 26.566406s3.90625 19.46875 11.003906 26.570313l103.539063 103.539062 10.628906-10.628906zm-26.566407-26.570313c-4.257812-4.257812-6.601562-9.917968-6.601562-15.941406 0-6.019531 2.34375-11.683594 6.601562-15.9375l28.339844-28.339844c4.257813-4.257812 9.917969-6.605468 15.9375-6.605468 6.023438 0 11.683594 2.347656 15.941406 6.605468l15.941407 15.941407-60.21875 60.21875zm0 0"/><path d="m341.011719 418.757812-10.628907 10.625 19.636719 19.636719-17.714843 17.710938-78.125-78.125-63.765626-21.253907-54.613281-54.617187-10.628906 10.628906 57.125 57.125 63.765625 21.253907 102.1875 102.1875c5.203125 5.203124 12.121094 8.066406 19.480469 8.066406s14.277343-2.863282 19.484375-8.066406c5.203125-5.207032 8.070312-12.125 8.070312-19.484376 0-7.359374-2.867187-14.28125-8.070312-19.484374zm35.574219 74.542969c-2.363282 2.367188-5.511719 3.667969-8.855469 3.667969s-6.492188-1.300781-8.855469-3.667969l-15.941406-15.9375 17.710937-17.714843 15.941407 15.941406c2.367187 2.367187 3.667968 5.511718 3.667968 8.855468 0 3.347657-1.300781 6.492188-3.667968 8.855469zm0 0"/><path d="m158.015625 313.699219 38.96875-38.964844-74.390625-74.394531-38.96875 38.96875zm17.714844-38.964844-17.714844 17.710937-53.136719-53.136718 17.714844-17.710938zm0 0"/><path d="m406.292969 73.144531v-15.03125h-59.617188v97.691407h15.03125v-37.574219h30.558594v-15.027344h-30.558594v-30.058594zm0 0"/><path d="m284.554688 60.617188c0 12.429687 10.113281 22.546874 22.546874 22.546874 12.429688 0 22.542969-10.117187 22.542969-22.546874 0-12.429688-10.113281-22.542969-22.542969-22.542969-12.433593 0-22.546874 10.113281-22.546874 22.542969zm30.058593 0c0 4.144531-3.371093 7.515624-7.511719 7.515624-4.144531 0-7.515624-3.371093-7.515624-7.515624 0-4.144532 3.371093-7.511719 7.515624-7.511719 4.140626 0 7.511719 3.367187 7.511719 7.511719zm0 0"/><path d="m236.460938 175.34375h37.574218v-15.03125h-22.542968v-22.542969h-15.03125zm0 0"/><path d="m236.460938 107.710938h15.03125v15.027343h-15.03125zm0 0"/><path d="m466.910156 82.660156h15.03125v15.03125h-15.03125zm0 0"/><path d="m466.910156 67.632812h15.03125v-37.574218h-37.574218v15.03125h22.542968zm0 0"/></svg>