<svg height="512pt" viewBox="-53 0 512 512.001" width="512pt" xmlns="http://www.w3.org/2000/svg"><path d="m340.277344 74.035156-7.121094 13.226563 57.394531 30.902343v131.890626c0 114.925781-77.109375 215.953124-187.765625 246.390624-85.742187-23.59375-153.890625-91.164062-178.125-176.78125l-14.453125 4.09375c12.625 44.605469 36.71875 85.5 69.671875 118.253907 33.46875 33.273437 75.300782 57.296875 120.972656 69.472656l1.933594.515625 1.9375-.515625c118.257813-31.535156 200.847656-139.039063 200.847656-261.429687v-140.863282zm0 0"/><path d="m15.023438 250.054688v-131.890626l187.761718-101.101562 116.265625 62.601562 7.121094-13.226562-123.386719-66.4375-202.785156 109.191406v140.863282c0 19.414062 2.085938 38.828124 6.203125 57.703124l14.675781-3.199218c-3.886718-17.828125-5.855468-36.164063-5.855468-54.503906zm0 0"/><path d="m332.214844 336.8125 13.746094 6.0625c12.972656-29.414062 19.554687-60.644531 19.554687-92.820312v-116.9375l-162.730469-87.621094-162.726562 87.621094v116.9375c0 49.246093 15.417968 96.324218 44.59375 136.148437 29.082031 39.699219 69.140625 68.558594 115.851562 83.457031l2.28125.726563 2.285156-.726563c29.042969-9.265625 55.570313-23.96875 78.839844-43.707031 22.8125-19.34375 41.417969-42.589844 55.308594-69.09375l-13.304688-6.972656c-26.191406 49.976562-69.855468 87.085937-123.128906 104.71875-88.453125-29.269531-147.707031-111.167969-147.707031-204.550781v-107.964844l147.707031-79.535156 147.710938 79.535156v107.964844c-.003906 30.074218-6.152344 59.265624-18.28125 86.757812zm0 0"/><path d="m315.445312 255.878906c0-23.601562-7.222656-46.199218-20.882812-65.351562l-12.230469 8.722656c11.835938 16.589844 18.089844 36.171875 18.089844 56.628906 0 53.835938-43.796875 97.636719-97.636719 97.636719-53.835937 0-97.636718-43.800781-97.636718-97.636719 0-53.835937 43.800781-97.636718 97.636718-97.636718 17.171875 0 34.054688 4.515624 48.820313 13.0625l7.527343-13c-17.054687-9.867188-36.539062-15.085938-56.347656-15.085938-62.121094 0-112.65625 50.539062-112.65625 112.660156s50.535156 112.660156 112.65625 112.660156 112.660156-50.539062 112.660156-112.660156zm0 0"/><path d="m273.457031 188.507812 10.871094-10.367187c-3.695313-3.871094-7.695313-7.507813-11.890625-10.816406l-9.292969 11.800781c3.640625 2.867188 7.109375 6.023438 10.3125 9.382812zm0 0"/><path d="m235.332031 188.285156h-65.09375v35.046875h-35.046875v65.09375h35.046875v35.046875h65.09375v-35.046875h35.046875v-65.09375h-35.046875zm20.027344 50.070313v35.046875h-35.050781v35.050781h-35.046875v-35.050781h-35.050781v-35.046875h35.050781v-35.050781h35.046875v35.050781zm0 0"/><path d="m155.597656 414.3125 8.621094-12.296875c-7.457031-5.234375-14.597656-11.082031-21.21875-17.386719l-10.359375 10.878906c7.160156 6.820313 14.886719 13.144532 22.957031 18.804688zm0 0"/><path d="m182.46875 430.152344 6.585938-13.496094c-4.3125-2.105469-8.589844-4.40625-12.707032-6.832031l-7.625 12.941406c4.453125 2.625 9.078125 5.109375 13.746094 7.386719zm0 0"/><path d="m293.65625 145.59375 7.121094-13.222656 13.226562 7.121094-7.121094 13.226562zm0 0"/><path d="m267.179688 131.371094 7.121093-13.226563 13.222657 7.121094-7.121094 13.226563zm0 0"/><path d="m216.753906 104.1875 7.121094-13.226562 37.226562 20.046874-7.121093 13.222657zm0 0"/></svg>