<svg height="512pt" viewBox="0 0 512 512" width="512pt" xmlns="http://www.w3.org/2000/svg"><path d="m338.960938 458.980469c-3.585938 22.015625-22.375 37.988281-44.675782 37.988281-22.636718 0-41.9375-16.921875-44.890625-39.363281l-11.382812-86.527344c-1.976563-15.054687-14.917969-26.40625-30.105469-26.40625s-28.128906 11.351563-30.105469 26.40625l-11.382812 86.527344c-2.953125 22.441406-22.253907 39.363281-44.890625 39.363281-22.300782 0-41.089844-15.972656-44.675782-37.988281l-13.238281-81.246094-14.832031 2.414063 13.238281 81.246093c4.773438 29.324219 29.800781 50.605469 59.507813 50.605469 30.152344 0 55.859375-22.542969 59.792968-52.433594l11.382813-86.53125c.996094-7.601562 7.53125-13.332031 15.203125-13.332031 7.667969 0 14.207031 5.730469 15.203125 13.335937l11.382813 86.527344c3.933593 29.890625 29.640624 52.433594 59.792968 52.433594 29.707032 0 54.734375-21.28125 59.507813-50.601562l6.066406-37.226563-14.835937-2.414063zm0 0"/><path d="m207.90625 77.777344c13.011719 0 25.996094-3.171875 37.539062-9.175782 7.695313-3.996093 15.976563-6.421874 24.613282-7.210937l-1.367188-14.96875c-10.589844.96875-20.738281 3.941406-30.175781 8.84375-9.417969 4.894531-20 7.484375-30.609375 7.484375s-21.195312-2.589844-30.613281-7.488281c-11.484375-5.964844-24.390625-9.136719-37.324219-9.171875l-.039062 15.03125c10.546874.027344 21.070312 2.613281 30.433593 7.476562 11.542969 6.007813 24.527344 9.179688 37.542969 9.179688zm0 0"/><path d="m59.769531 354.132812c-3.296875-20.203124-11.175781-39.785156-22.792969-56.628906-14.359374-20.8125-21.945312-45.183594-21.945312-70.480468v-41.179688c0-63.632812 47.613281-116.921875 110.753906-123.953125l-1.660156-14.9375c-70.765625 7.882813-124.125 67.589844-124.125 138.890625v41.179688c0 28.359374 8.507812 55.683593 24.605469 79.011718 10.359375 15.027344 17.390625 32.496094 20.332031 50.515625l1.425781 8.765625 14.835938-2.417968zm0 0"/><path d="m378.835938 297.503906c-11.617188 16.84375-19.496094 36.425782-22.792969 56.632813l-8.601563 52.785156 14.835938 2.417969 8.601562-52.785156c2.9375-18.023438 9.96875-35.492188 20.328125-50.519532 9.785157-14.179687 16.78125-29.878906 20.792969-46.664062l-14.617188-3.496094c-3.578124 14.972656-9.820312 28.980469-18.546874 41.628906zm0 0"/><path d="m496.871094 59.957031-13.089844 7.382813c8.628906 15.292968 13.1875 32.714844 13.1875 50.390625 0 56.628906-46.070312 102.699219-102.699219 102.699219-56.628906 0-102.699219-46.070313-102.699219-102.699219 0-56.628907 46.070313-102.699219 102.699219-102.699219 22.640625 0 44.105469 7.21875 62.078125 20.875l9.09375-11.964844c-20.609375-15.664062-45.21875-23.941406-71.171875-23.941406-64.917969 0-117.730469 52.8125-117.730469 117.730469s52.8125 117.730469 117.730469 117.730469 117.730469-52.8125 117.730469-117.730469c0-20.257813-5.230469-40.234375-15.128906-57.773438zm0 0"/><path d="m488.0625 46.5625c-3.226562-4.242188-6.769531-8.308594-10.542969-12.078125l-10.625 10.628906c3.289063 3.289063 6.386719 6.835938 9.203125 10.542969zm0 0"/><path d="m426.832031 185.363281v-35.070312h35.070313v-65.125h-35.070313v-35.070313h-65.125v35.070313h-35.070312v65.125h35.070312v35.070312zm-85.164062-50.097656v-35.070313h35.066406v-35.066406h35.070313v35.066406h35.066406v35.070313h-35.066406v35.066406h-35.070313v-35.066406zm0 0"/><path d="m311.824219 438.613281 2.417969-14.832031 14.832031 2.417969-2.414063 14.832031zm0 0"/><path d="m316.660156 408.945312 7.1875-44.125 14.835938 2.417969-7.191406 44.125zm0 0"/><path d="m116.566406 94.050781-3.683594-14.574219c-18.730468 4.734376-35.972656 14.433594-49.867187 28.046876l10.519531 10.734374c11.996094-11.753906 26.875-20.125 43.03125-24.207031zm0 0"/><path d="m32.394531 163.277344 14.707031 3.089844c.949219-4.523438 2.246094-9.019532 3.855469-13.359376l-14.089843-5.222656c-1.867188 5.03125-3.371094 10.246094-4.472657 15.492188zm0 0"/><path d="m64.332031 128.699219-11.972656-9.089844c-3.246094 4.277344-6.199219 8.824219-8.78125 13.511719l13.167969 7.242187c2.226562-4.046875 4.777344-7.96875 7.585937-11.664062zm0 0"/></svg>