<svg height="512pt" viewBox="0 -88 512 512" width="512pt" xmlns="http://www.w3.org/2000/svg"><path d="m512 40.046875h-62.535156l-26.03125 50.058594h-66.402344v15.015625h75.519531l26.03125-50.058594h31.570313l-30.332032 79.046875 25.914063 50.101563h-25.253906l-24.230469-44.421876-110.863281 9.085938c-12.636719 1.035156-23.804688 8.292969-29.882813 19.421875l-25.890625 47.40625 13.179688 7.195313 25.890625-47.402344c3.644531-6.679688 10.347656-11.035156 17.929687-11.65625l101.128907-8.289063 23.824218 43.675781h58.84375l-34.152344-66.03125zm0 0"/><path d="m251.789062 320.367188h-33.539062v-25.136719c16.132812-1.097657 30.679688-10.328125 38.503906-24.652344l18.839844-34.5-13.179688-7.195313-18.84375 34.5c-5.703124 10.449219-16.648437 16.941407-28.554687 16.941407h-136.382813c-31.832031 0-58.273437-23.503907-62.898437-54.0625h98.003906l34.433594-34.433594v-86.707031h193.839844v-15.015625h-151.792969v-15.019531h15.015625v-15.015626h137.660156c6.023438 0 11.683594-2.351562 15.910157-6.597656 4.265624-4.246094 6.617187-9.90625 6.617187-15.929687 0-12.421875-10.105469-22.527344-22.527344-22.527344h-57.933593v15.019531h57.933593c4.140625 0 7.507813 3.367188 7.507813 7.507813 0 2.003906-.777344 3.882812-2.214844 5.3125-1.410156 1.417969-3.289062 2.195312-5.292969 2.195312h-137.660156v-15.015625h64.707031v-15.019531h-65.996094c-3.101562-8.738281-11.445312-15.015625-21.234374-15.015625-9.789063 0-18.136719 6.277344-21.234376 15.015625h-138.949218c-6.027344 0-11.683594 2.351563-15.914063 6.597656-4.265625 4.25-6.613281 9.90625-6.613281 15.929688 0 12.421875 10.105469 22.527343 22.527344 22.527343h137.65625v15.015626h15.019531v15.019531h-27.195313c-25.894531 0-51.535156 6.636719-74.152343 19.199219-22.367188 12.417968-41.394531 30.394531-55.027344 51.988281l12.699219 8.015625c22.707031-35.964844 59.964844-58.945313 101.625-63.382813v79.679688l-25.632813 25.636719h-92.261719c.496094-5.808594 1.785157-11.503907 3.855469-16.996094 1.605469-4.253906 3.441407-8.46875 5.449219-12.53125l-13.457031-6.660156c-2.230469 4.5-4.261719 9.175781-6.039063 13.886718-3.363281 8.90625-5.066406 18.246094-5.066406 27.765625 0 43.359375 35.273438 78.632813 78.632812 78.632813h4.460938v25.027344h-33.535156c-9.109375 0-16.519532-7.40625-16.519532-16.519532h-15.019531c0 17.390625 14.148438 31.539063 31.539063 31.539063h202.230468c17.390626 0 31.535157-14.148438 31.535157-31.539063h-15.015625c0 9.109375-7.410156 16.519532-16.519532 16.519532zm-91.605468-275.316407h-137.65625c-4.140625 0-7.511719-3.367187-7.511719-7.507812 0-2.003907.78125-3.882813 2.21875-5.3125 1.410156-1.417969 3.289063-2.195313 5.292969-2.195313h137.65625zm15.019531-22.523437c0-4.140625 3.367187-7.511719 7.507813-7.511719 4.140624 0 7.507812 3.371094 7.507812 7.511719v37.542968h-15.015625zm28.03125 297.839844h-105.121094v-25.027344h105.121094zm0 0"/><path d="m233.269531 200.230469h25.027344v-45.050781h-25.027344v-25.03125h-45.054687v25.03125h-25.027344v45.050781h25.027344v25.027343h45.054687zm-15.019531 10.011719h-15.015625v-25.027344h-25.03125v-15.019532h25.03125v-25.027343h15.015625v25.027343h25.03125v15.019532h-25.03125zm0 0"/><path d="m100.902344 145.984375-6.578125-13.5c-5.570313 2.714844-10.996094 5.890625-16.128907 9.441406-6.617187 4.574219-12.792968 9.800781-18.355468 15.535157l10.777344 10.457031c4.878906-5.03125 10.304687-9.621094 16.121093-13.640625 4.507813-3.121094 9.273438-5.910156 14.164063-8.292969zm0 0"/><path d="m119.636719 249.285156h15.019531v15.019532h-15.019531zm0 0"/><path d="m179.707031 249.285156h15.015625v15.019532h-15.015625zm0 0"/><path d="m149.671875 249.285156h15.019531v15.019532h-15.019531zm0 0"/></svg>