<svg height="512pt" viewBox="0 0 512.002 512" width="512pt" xmlns="http://www.w3.org/2000/svg"><path d="m388.773438 211.796875-266.839844 266.835937c-11.445313 11.445313-26.660156 17.949219-42.835938 18.320313l.34375 15.027344c20.058594-.460938 38.925782-8.527344 53.121094-22.71875l266.835938-266.839844zm0 0"/><path d="m15.03125 434.351562c0-16.726562 6.511719-32.457031 18.335938-44.285156l197.257812-197.253906-10.628906-10.628906-197.257813 197.257812c-14.664062 14.667969-22.738281 34.167969-22.738281 54.910156 0 20.742188 8.074219 40.242188 22.738281 54.910157 11.023438 11.019531 24.910157 18.394531 40.160157 21.332031l2.84375-14.757812c-12.292969-2.367188-23.484376-8.316407-32.375-17.203126-11.824219-11.828124-18.335938-27.554687-18.335938-44.28125zm0 0"/><path d="m241.25 182.183594 148.816406-148.816406c11.828125-11.824219 27.554688-18.335938 44.285156-18.335938 16.726563 0 32.453126 6.511719 44.28125 18.335938 11.824219 11.828124 18.335938 27.554687 18.335938 44.285156 0 16.726562-6.511719 32.453125-18.335938 44.28125l-79.234374 79.234375 10.628906 10.628906 79.234375-79.234375c14.664062-14.671875 22.738281-34.171875 22.738281-54.914062 0-20.738282-8.078125-40.242188-22.742188-54.910157-14.667968-14.660156-34.167968-22.738281-54.90625-22.738281-20.742187 0-40.246093 8.078125-54.914062 22.738281l-148.8125 148.816407zm0 0"/><path d="m389.554688 279.734375-10.625 10.628906 99.703124 99.703125c11.824219 11.832032 18.339844 27.558594 18.339844 44.285156 0 16.726563-6.515625 32.453126-18.339844 44.28125-11.828124 11.824219-27.554687 18.339844-44.28125 18.339844-16.730468 0-32.457031-6.515625-44.285156-18.339844l-34.9375-34.9375-10.628906 10.625 34.941406 34.941407c14.667969 14.664062 34.167969 22.738281 54.910156 22.738281 20.742188 0 40.242188-8.074219 54.910157-22.738281 14.664062-14.667969 22.742187-34.171875 22.742187-54.910157 0-20.742187-8.078125-40.242187-22.742187-54.914062zm0 0"/><path d="m279.730469 389.554688 10.625-10.625 54.140625 54.136718-10.628906 10.628906zm0 0"/><path d="m68.304688 178.128906 10.628906-10.628906 54.136718 54.140625-10.628906 10.625zm0 0"/><path d="m57.679688 167.503906 10.625-10.628906-34.9375-34.9375c-11.824219-11.832031-18.335938-27.558594-18.335938-44.285156 0-16.726563 6.511719-32.457032 18.335938-44.285156 11.828124-11.824219 27.554687-18.335938 44.28125-18.335938 16.730468 0 32.457031 6.511719 44.285156 18.335938l99.703125 99.707031 10.628906-10.628907-99.707031-99.707031c-14.667969-14.660156-34.167969-22.738281-54.910156-22.738281-20.738282 0-40.242188 8.078125-54.910157 22.742188-14.664062 14.667968-22.738281 34.167968-22.738281 54.910156 0 20.742187 8.074219 40.242187 22.738281 54.910156zm0 0"/><path d="m217.742188 352.230469c6.023437 0 11.683593-2.34375 15.941406-6.601563l111.945312-111.941406c4.257813-4.257812 6.601563-9.917969 6.601563-15.941406 0-6.023438-2.34375-11.683594-6.601563-15.941406l-35.429687-35.429688c-4.261719-4.257812-9.921875-6.601562-15.941407-6.601562-6.023437 0-11.683593 2.34375-15.941406 6.601562l-111.945312 111.941406c-4.257813 4.257813-6.601563 9.917969-6.601563 15.941406 0 6.019532 2.34375 11.683594 6.601563 15.941407l35.429687 35.429687c4.261719 4.257813 9.921875 6.601563 15.941407 6.601563zm-42.941407-57.972657c0-2.007812.78125-3.894531 2.199219-5.3125l111.941406-111.945312c1.421875-1.417969 3.308594-2.199219 5.316406-2.199219 2.007813 0 3.894532.78125 5.3125 2.199219l35.429688 35.429688c1.417969 1.421874 2.199219 3.308593 2.199219 5.316406 0 2.007812-.78125 3.894531-2.199219 5.3125l-111.941406 111.941406c-1.421875 1.421875-3.308594 2.203125-5.316406 2.203125-2.007813 0-3.894532-.78125-5.3125-2.203125l-35.429688-35.429688c-1.417969-1.417968-2.199219-3.304687-2.199219-5.3125zm0 0"/><path d="m326.847656 132.015625 10.625-10.625 10.628906 10.625-10.628906 10.628906zm0 0"/><path d="m348.101562 153.269531 10.625-10.628906 10.628907 10.628906-10.628907 10.628907zm0 0"/><path d="m369.355469 174.527344 10.628906-10.628906 10.625 10.628906-10.628906 10.625zm0 0"/><path d="m369.355469 132.015625 10.628906-10.625 10.628906 10.625-10.628906 10.628906zm0 0"/><path d="m390.609375 153.273438 10.628906-10.628907 10.625 10.625-10.625 10.628907zm0 0"/><path d="m348.101562 110.761719 10.628907-10.628907 10.625 10.628907-10.625 10.628906zm0 0"/><path d="m411.867188 132.015625 10.625-10.625 10.628906 10.625-10.628906 10.628906zm0 0"/><path d="m390.609375 110.761719 10.628906-10.628907 10.628907 10.628907-10.628907 10.628906zm0 0"/><path d="m369.355469 89.507812 10.628906-10.628906 10.628906 10.628906-10.628906 10.625zm0 0"/><path d="m163.890625 379.988281 10.628906-10.628906 10.628907 10.625-10.628907 10.628906zm0 0"/><path d="m121.382812 337.476562 10.628907-10.628906 10.625 10.628906-10.625 10.628907zm0 0"/><path d="m142.636719 358.730469 10.628906-10.628907 10.625 10.628907-10.625 10.628906zm0 0"/><path d="m100.128906 358.730469 10.628906-10.625 10.625 10.625-10.628906 10.628906zm0 0"/><path d="m142.636719 401.242188 10.628906-10.628907 10.625 10.628907-10.628906 10.625zm0 0"/><path d="m121.382812 379.988281 10.628907-10.628906 10.625 10.625-10.628907 10.628906zm0 0"/><path d="m100.125 401.242188 10.628906-10.628907 10.628906 10.628907-10.628906 10.625zm0 0"/><path d="m121.382812 422.496094 10.628907-10.628906 10.625 10.628906-10.628907 10.628906zm0 0"/><path d="m78.871094 379.988281 10.628906-10.628906 10.628906 10.625-10.628906 10.628906zm0 0"/><path d="m121.382812 174.523438 10.628907-10.628907 10.628906 10.628907-10.628906 10.628906zm0 0"/><path d="m163.894531 132.015625 10.625-10.628906 10.628907 10.628906-10.625 10.625zm0 0"/><path d="m142.640625 153.269531 10.625-10.628906 10.628906 10.628906-10.628906 10.628907zm0 0"/><path d="m121.382812 132.011719 10.628907-10.625 10.628906 10.628906-10.628906 10.625zm0 0"/><path d="m100.128906 153.269531 10.625-10.628906 10.628906 10.628906-10.625 10.625zm0 0"/><path d="m142.636719 110.761719 10.628906-10.628907 10.628906 10.628907-10.628906 10.625zm0 0"/><path d="m121.382812 89.503906 10.628907-10.628906 10.628906 10.628906-10.628906 10.628906zm0 0"/><path d="m78.875 132.011719 10.625-10.625 10.628906 10.628906-10.625 10.625zm0 0"/><path d="m100.128906 110.757812 10.628906-10.628906 10.628907 10.628906-10.628907 10.628907zm0 0"/><path d="m348.097656 358.730469 10.628906-10.625 10.628907 10.625-10.628907 10.628906zm0 0"/><path d="m369.355469 337.476562 10.625-10.625 10.628906 10.625-10.628906 10.628907zm0 0"/><path d="m326.84375 379.988281 10.628906-10.628906 10.625 10.628906-10.625 10.625zm0 0"/><path d="m390.609375 358.734375 10.625-10.628906 10.628906 10.628906-10.625 10.625zm0 0"/><path d="m348.097656 401.242188 10.628906-10.625 10.625 10.625-10.625 10.628906zm0 0"/><path d="m369.355469 379.988281 10.625-10.628906 10.628906 10.628906-10.628906 10.625zm0 0"/><path d="m369.355469 422.496094 10.625-10.625 10.628906 10.625-10.628906 10.628906zm0 0"/><path d="m390.609375 401.242188 10.628906-10.628907 10.625 10.628907-10.625 10.628906zm0 0"/><path d="m411.863281 379.988281 10.628907-10.628906 10.628906 10.628906-10.628906 10.628907zm0 0"/></svg>