<svg height="512pt" viewBox="0 0 512 512" width="512pt" xmlns="http://www.w3.org/2000/svg"><path d="m197.25 132.628906c0 13.492188 2.019531 26.800782 6.003906 39.5625l14.332032-4.476562c-3.53125-11.308594-5.320313-23.113282-5.324219-35.085938 0-64.855468 52.761719-117.617187 117.617187-117.617187 24.074219 0 47.21875 7.222656 66.925782 20.886719l8.554687-12.339844c-22.230469-15.410156-48.332031-23.558594-75.480469-23.558594-73.132812 0-132.628906 59.496094-132.628906 132.628906zm0 0"/><path d="m222.589844 180.894531-13.691406 6.167969c2.167968 4.8125 4.65625 9.546875 7.390624 14.074219l12.851563-7.765625c-2.425781-4.011719-4.628906-8.210938-6.550781-12.476563zm0 0"/><path d="m417.875 54.589844 11.230469-9.964844c-3.503907-3.953125-7.285157-7.734375-11.242188-11.242188l-9.964843 11.234376c3.511718 3.113281 6.867187 6.46875 9.976562 9.972656zm0 0"/><path d="m329.878906 235.230469c56.574219 0 102.597656-46.027344 102.597656-102.601563 0-56.574218-46.023437-102.597656-102.597656-102.597656-56.574218 0-102.601562 46.023438-102.601562 102.597656 0 56.574219 46.027344 102.601563 102.601562 102.601563zm0-190.1875c48.292969 0 87.585938 39.292969 87.585938 87.585937 0 48.296875-39.292969 87.585938-87.585938 87.585938-48.296875 0-87.585937-39.289063-87.585937-87.585938 0-48.292968 39.289062-87.585937 87.585937-87.585937zm0 0"/><path d="m313.65625 104.453125 33.175781 92.488281 27.773438-56.804687h27.34375v-15.015625h-36.71875l-16.269531 33.285156-32.890626-91.695312-29.824218 58.410156h-28.4375v15.015625h37.628906zm0 0"/><path d="m321.035156 423.257812v88.742188h15.015625v-83.476562l32.085938-40.152344-11.726563-9.371094zm0 0"/><path d="m369.699219 362.371094-3.917969 4.898437 11.730469 9.375 3.917969-4.902343c16.542968-20.703126 29.648437-43.589844 38.953124-68.023438l-14.03125-5.339844c-8.75 22.976563-21.082031 44.503906-36.652343 63.992188zm0 0"/><path d="m238.316406 15.050781-.234375-15.0117185c-73.15625 1.1406255-138.875 40.3789065-171.511719 102.4062495l13.289063 6.992188c30.074219-57.164062 90.792969-93.332031 158.457031-94.386719zm0 0"/><path d="m87.421875 424.453125c-6.460937-6.097656-12.019531-17.992187-13.097656-27.425781l36.269531-33.148438v-15.652344l-49.351562-14.0625v-31.152343l-36.902344-9.753907c-5.492188-1.453124-9.324219-6.433593-9.324219-12.117187 0-1.945313.453125-3.832031 1.347656-5.609375l44.882813-89.152344v-1.785156c0-21.46875 4.203125-42.390625 12.492187-62.175781l-13.851562-5.804688c-8.828125 21.085938-13.417969 43.339844-13.648438 66.179688l-43.289062 85.992187c-1.957031 3.886719-2.949219 8.046875-2.949219 12.355469 0 12.492187 8.433594 23.441406 20.503906 26.632813l25.726563 6.796874v30.929688l47.429687 13.511719-34.539062 31.566406v3.308594c0 13.96875 7.738281 31.800781 17.996094 41.484375 10.296874 9.714844 23.953124 15.070312 38.457031 15.070312h16.738281v61.558594h15.015625v-61.558594h90.71875v-15.015625h-122.472656c-10.5 0-20.761719-4-28.152344-10.972656zm0 0"/><path d="m440.296875 274.894531 31.847656-31.847656 29.097657 29.09375 10.617187-10.617187-65.511719-65.5c10.300782-18.84375 16.160156-40.449219 16.160156-63.394532 0-27.160156-8.152343-53.269531-23.582031-75.507812l-12.335937 8.554687c13.675781 19.714844 20.902344 42.867188 20.902344 66.953125 0 64.855469-52.761719 117.617188-117.613282 117.617188-36.460937 0-70.261718-16.5-92.738281-45.265625l-11.832031 9.242187c25.34375 32.433594 63.457031 51.035156 104.570312 51.035156 22.945313 0 44.546875-5.859374 63.390625-16.15625l107.972657 107.980469 10.617187-10.617187zm-33.953125-33.957031c12.332031-8.730469 23.113281-19.511719 31.84375-31.84375l23.339844 23.335938-31.847656 31.847656zm0 0"/><path d="m147.699219 405.394531h15.015625v15.015625h-15.015625zm0 0"/><path d="m177.730469 405.394531h40.039062v15.015625h-40.039062zm0 0"/><path d="m145.3125 77.695312-9.234375-11.839843c-11.726563 9.144531-22.058594 19.738281-30.710937 31.488281l12.089843 8.902344c7.839844-10.644532 17.210938-20.25 27.855469-28.550782zm0 0"/><path d="m89.375 124.511719 13.660156 6.226562c1.949219-4.277343 4.160156-8.519531 6.570313-12.609375l-12.933594-7.625c-2.675781 4.542969-5.132813 9.253906-7.296875 14.007813zm0 0"/></svg>