<svg height="512pt" viewBox="-99 0 512 512" width="512pt" xmlns="http://www.w3.org/2000/svg"><path d="m260.507812 386.253906c0 12.429688-10.113281 22.542969-22.542968 22.542969h-200.390625c-12.433594 0-22.542969-10.113281-22.542969-22.542969v-42.941406h-15.03125v42.941406c0 18.636719 13.640625 34.140625 31.460938 37.070313l13.507812 59.429687c3.910156 17.21875 18.976562 29.246094 36.636719 29.246094h13.859375v-15.03125h-13.859375c-10.59375 0-19.632813-7.214844-21.980469-17.546875l-12.636719-55.59375h181.5625l-12.636719 55.59375c-2.347656 10.332031-11.386718 17.546875-21.980468 17.546875h-83.4375v15.03125h83.4375c17.65625 0 32.722656-12.027344 36.636718-29.246094l13.507813-59.429687c17.820313-2.929688 31.460937-18.433594 31.460937-37.070313v-66.558594h-15.03125zm0 0"/><path d="m126.78125 177.886719c5.484375-5.503907 8.496094-12.820313 8.484375-20.59375-.015625-7.773438-3.058594-15.074219-8.566406-20.558594-10.679688-10.640625-27.625-11.253906-39.027344-1.855469-11.402344-9.398437-28.347656-8.789062-39.03125 1.855469-5.507813 5.484375-8.546875 12.785156-8.5625 20.558594-.015625 7.773437 2.996094 15.089843 8.484375 20.59375l39.109375 39.261719zm-71.671875-20.5625c.003906-3.757813 1.476563-7.289063 4.140625-9.941407 2.738281-2.730468 6.335938-4.097656 9.929688-4.097656 3.613281 0 7.222656 1.378906 9.96875 4.136719l8.523437 8.554687 8.523437-8.554687c5.472657-5.5 14.402344-5.515625 19.898438-.039063 2.664062 2.652344 4.132812 6.183594 4.140625 9.941407.007813 3.757812-1.449219 7.292969-4.101563 9.957031l-28.460937 28.574219-28.460937-28.574219c-2.652344-2.664062-4.109376-6.199219-4.101563-9.957031zm0 0"/><path d="m35.570312 314.613281h41.714844l10.558594-21.109375 40.078125 76.148438 51.042969-102.09375 24.371094 47.054687h36.632812v-15.027343h-27.492188l-33.746093-65.164063-51.152344 102.308594-40.078125-76.152344-19.503906 39.007813h-32.425782zm0 0"/><path d="m291.070312 183.359375h-15.53125v-57.613281c0-18.636719-13.640624-34.140625-31.460937-37.070313l-13.507813-59.429687c-3.914062-17.21875-18.980468-29.246094-36.636718-29.246094h-112.328125c-17.660157 0-32.726563 12.027344-36.636719 29.246094l-13.507812 59.429687c-17.820313 2.929688-31.460938 18.433594-31.460938 37.070313v202.539062h15.03125v-202.539062c0-12.429688 10.109375-22.542969 22.542969-22.542969h120.949219v-15.03125h-111.535157l12.636719-55.59375c2.347656-10.332031 11.386719-17.546875 21.980469-17.546875h112.328125c10.59375 0 19.632812 7.214844 21.980468 17.546875l12.636719 55.59375h-54.996093v15.03125h64.410156c12.429687 0 22.542968 10.113281 22.542968 22.542969v178.921875h15.03125v-36.144531h15.53125c12.429688 0 22.542969-10.113282 22.542969-22.542969v-40.078125c0-12.429688-10.113281-22.542969-22.542969-22.542969zm7.511719 62.621094c0 4.144531-3.371093 7.515625-7.511719 7.515625h-15.53125v-55.109375h15.53125c4.140626 0 7.511719 3.371093 7.511719 7.515625zm0 0"/><path d="m102.699219 466.910156h15.03125v15.03125h-15.03125zm0 0"/><path d="m132.757812 466.910156h40.078126v15.03125h-40.078126zm0 0"/><path d="m152.796875 141.277344h75.148437v15.027344h-75.148437zm0 0"/><path d="m212.914062 171.335938h15.03125v15.027343h-15.03125zm0 0"/><path d="m182.855469 171.335938h15.03125v15.027343h-15.03125zm0 0"/><path d="m152.796875 171.335938h15.03125v15.027343h-15.03125zm0 0"/><path d="m102.699219 30.058594h15.03125v15.03125h-15.03125zm0 0"/><path d="m132.757812 30.058594h40.078126v15.03125h-40.078126zm0 0"/></svg>