<svg height="512pt" viewBox="0 0 512 512" width="512pt" xmlns="http://www.w3.org/2000/svg"><path d="m278.042969 217.425781h102.699219v215.417969h-170.273438l-48.378906 19.351562 5.585937 13.953126 45.683594-18.273438h182.414063v-245.480469h-117.730469zm0 0"/><path d="m15.03125 217.425781h247.984375v-15.03125h-263.015625v92.683594h15.03125zm0 0"/><path d="m69.136719 489.378906v-56.535156h-54.105469v-122.738281h-15.03125v137.769531h54.105469v63.703125l99.613281-39.847656-5.582031-13.953125zm0 0"/><path d="m346.675781 175.34375v-35.070312h35.070313v-65.125h-35.070313v-35.070313h-65.125v35.070313h-35.070312v65.125h35.070312v35.070312zm-85.164062-50.097656v-35.070313h35.066406v-35.066406h35.070313v35.066406h35.066406v35.070313h-35.066406v35.066406h-35.070313v-35.066406zm0 0"/><path d="m131.257812 15.03125h310.878907v-15.03125h-325.910157v119.960938h15.03125zm0 0"/><path d="m116.226562 134.992188h15.03125v48.867187h-15.03125zm0 0"/><path d="m457.164062 0v15.03125h39.804688v215.417969h-54.105469v56.535156l-25.761719-10.308594-5.582031 13.953125 46.375 18.554688v-63.703125h54.105469v-245.480469zm0 0"/><path d="m190.871094 344.171875-18.117188-34.425781c10.296875-3.996094 17.617188-14 17.617188-25.691406 0-15.191407-12.359375-27.554688-27.554688-27.554688h-37.570312v87.671875h15.027344v-32.5625h17.429687l17.136719 32.5625zm-28.054688-47.59375h-22.542968v-25.046875h22.542968c6.90625 0 12.527344 5.617188 12.527344 12.523438s-5.621094 12.523437-12.527344 12.523437zm0 0"/><path d="m254.996094 308.101562-22.042969 31.59375-22.042969-31.59375h-16.03125l30.058594 43.085938-30.058594 43.082031h16.03125l22.042969-31.59375 22.042969 31.59375h16.035156l-30.0625-43.082031 30.0625-43.085938zm0 0"/><path d="m30.058594 350.183594h15.03125v15.03125h-15.03125zm0 0"/><path d="m30.058594 417.816406h37.574218v-15.03125h-22.542968v-22.542968h-15.03125zm0 0"/><path d="m409.300781 30.058594h15.027344v15.03125h-15.027344zm0 0"/><path d="m439.359375 30.058594h40.078125v15.03125h-40.078125zm0 0"/></svg>