<svg height="511pt" viewBox="0 1 511 511.999" width="511pt" xmlns="http://www.w3.org/2000/svg"><path d="m178.125 27.632812 105.167969 162.5625 12.601562-8.152343-117.769531-182.042969-79.644531 123.105469 12.605469 8.15625zm0 0"/><path d="m15.511719 323.949219c0-29.40625 8.75-58.480469 25.3125-84.078125l62.105469-96.003906-12.601563-8.15625-62.105469 96.003906c-18.136718 28.03125-27.722656 59.925781-27.722656 92.234375 0 46.039062 19.351562 91.226562 53.09375 123.976562l10.457031-10.773437c-30.847656-29.9375-48.539062-71.199219-48.539062-113.203125zm0 0"/><path d="m178.125 482.644531c-38.585938 0-74.328125-12.441406-103.359375-35.980469l-9.453125 11.660157c31.734375 25.730469 70.746094 39.332031 112.8125 39.332031 27.980469 0 54.539062-5.996094 78.9375-17.816406l-6.542969-13.507813c-22.339843 10.824219-46.699219 16.3125-72.394531 16.3125zm0 0"/><path d="m259.164062 231.65625c17.085938-9.289062 36.472657-14.195312 56.058594-14.195312 51.4375 0 96.476563 32.902343 112.0625 81.875l14.304688-4.554688c-8.46875-26.605469-24.851563-49.511719-47.375-66.242188-22.976563-17.070312-50.292969-26.089843-78.992188-26.089843-22.082031 0-43.945312 5.539062-63.226562 16.015625zm0 0"/><path d="m223.363281 430.660156 10.398438-10.824218c-23.292969-22.382813-36.125-52.5-36.125-84.792969 0-38.011719 18.527343-73.871094 49.558593-95.921875l-8.691406-12.238282c-34.988281 24.859376-55.878906 65.292969-55.878906 108.160157.003906 36.417969 14.46875 70.375 40.738281 95.617187zm0 0"/><path d="m315.21875 437.613281c56.558594 0 102.574219-46.011719 102.574219-102.570312 0-56.558594-46.015625-102.574219-102.574219-102.574219s-102.570312 46.015625-102.570312 102.574219c0 56.558593 46.015624 102.570312 102.570312 102.570312zm0-190.132812c48.285156 0 87.5625 39.28125 87.5625 87.5625s-39.277344 87.558593-87.5625 87.558593c-48.28125 0-87.558594-39.277343-87.558594-87.558593s39.277344-87.5625 87.558594-87.5625zm0 0"/><path d="m431.660156 398.417969c10.296875-18.839844 16.152344-40.4375 16.152344-63.375 0-8.347657-.78125-16.707031-2.324219-24.839844l-14.746093 2.796875c1.367187 7.214844 2.0625 14.628906 2.0625 22.042969 0 64.832031-52.746094 117.582031-117.582032 117.582031-25.761718 0-50.21875-8.175781-70.730468-23.640625l-9.035157 11.984375c23.132813 17.445312 50.714844 26.667969 79.765625 26.664062 22.9375 0 44.535156-5.855468 63.375-16.152343l60.515625 60.519531 10.617188-10.617188-24.117188-24.117187 31.832031-31.835937 44.132813 44.132812 10.613281-10.613281zm-16.664062 68.234375-23.332032-23.332032c12.328126-8.726562 23.105469-19.507812 31.835938-31.835937l23.332031 23.332031zm0 0"/><path d="m287.703125 392.582031h55.035156v-30.019531h30.023438v-55.039062h-30.023438v-30.019532h-55.035156v30.019532h-30.023437v55.039062h30.023437zm-15.011719-45.03125v-25.015625h30.019532v-30.023437h25.019531v30.023437h30.019531v25.015625h-30.019531v30.019531h-25.019531v-30.019531zm0 0"/><path d="m128.773438 443.671875c-15.574219-5.960937-29.613282-14.695313-41.730469-25.957031l-10.21875 10.996094c13.53125 12.574218 29.207031 22.324218 46.582031 28.976562zm0 0"/><path d="m54.976562 371.355469-13.882812 5.707031c1.984375 4.824219 4.265625 9.617188 6.789062 14.253906l6.605469-3.5625 6.710938-3.359375-.136719-.261719c-2.261719-4.152343-4.308594-8.453124-6.085938-12.777343zm0 0"/><path d="m77.199219 407.503906c-3.066407-3.554687-5.988281-7.332031-8.675781-11.230468l-12.355469 8.527343c2.996093 4.339844 6.25 8.550781 9.671875 12.515625zm0 0"/><path d="m164.808594 195.246094 10.617187-10.613282 30.019531 30.019532-10.617187 10.617187zm0 0"/><path d="m222.65625 165.070312h15.011719v40.027344h-15.011719zm0 0"/><path d="m145.25 242.476562h40.027344v15.011719h-40.027344zm0 0"/></svg>