<svg height="512pt" viewBox="0 0 512 512" width="512pt" xmlns="http://www.w3.org/2000/svg"><path d="m256.085938 496.164062c-47.796876 0-97.773438-16.53125-148.535157-49.140624l-8.109375 12.625c53.21875 34.1875 105.921875 51.519531 156.644532 51.519531 51.960937 0 105.929687-18.15625 160.410156-53.964844l-8.242188-12.539063c-51.992187 34.171876-103.1875 51.5-152.167968 51.5zm0 0"/><path d="m20.054688 373.632812c9.304687-10.125 33.101562-34.625 66.449218-58.96875 39.726563-29.007812 101.398438-63.582031 169.582032-63.582031 13.898437 0 28.203124 1.4375 42.515624 4.265625l2.910157-14.71875c-15.269531-3.019531-30.554688-4.550781-45.425781-4.550781-72.230469 0-136.898438 36.144531-178.429688 66.464844-44.742188 32.664062-72.226562 64.875-73.378906 66.230469l-4.277344 4.859374 7.78125 8.800782c9.582031 10.574218 38.109375 40.417968 78.945312 68.726562l8.550782-12.332031c-38.214844-26.488281-65.148438-54.199219-75.222656-65.195313zm0 0"/><path d="m507.890625 368.773438c-.832031-.984376-20.808594-24.417969-54.386719-51.617188-31.066406-25.164062-80.042968-58.269531-136.933594-73.078125l-3.78125 14.519531c90.125 23.460938 161.402344 95.617188 179.308594 115.03125-9.8125 10.667969-35.652344 37.222656-71.652344 62.710938l8.671876 12.246094c47.867187-33.890626 77.535156-68.652344 78.773437-70.113282l4.109375-4.851562zm0 0"/><path d="m148.550781 373.625c0 59.292969 48.238281 107.535156 107.535157 107.535156 59.292968 0 107.535156-48.242187 107.535156-107.535156 0-59.296875-48.242188-107.535156-107.535156-107.535156-59.296876 0-107.535157 48.238281-107.535157 107.535156zm200.066407 0c0 51.019531-41.511719 92.53125-92.53125 92.53125-51.023438 0-92.53125-41.511719-92.53125-92.53125 0-51.023438 41.507812-92.53125 92.53125-92.53125 51.019531 0 92.53125 41.507812 92.53125 92.53125zm0 0"/><path d="m298.332031 334.632812 11.019531-10.183593c-3.785156-4.09375-8.039062-7.757813-12.644531-10.878907l-8.425781 12.414063c3.660156 2.484375 7.042969 5.394531 10.050781 8.648437zm0 0"/><path d="m183.5625 373.625c0 39.988281 32.53125 72.523438 72.523438 72.523438 39.988281 0 72.523437-32.535157 72.523437-72.523438 0-12.511719-3.253906-24.859375-9.410156-35.703125l-13.050781 7.40625c4.878906 8.589844 7.457031 18.375 7.457031 28.296875 0 31.714844-25.804688 57.519531-57.519531 57.519531-31.71875 0-57.519532-25.804687-57.519532-57.519531 0-31.71875 25.800782-57.519531 57.519532-57.519531 7.046874 0 13.929687 1.265625 20.457031 3.757812l5.355469-14.015625c-8.246094-3.148437-16.929688-4.746094-25.8125-4.746094-39.992188 0-72.523438 32.53125-72.523438 72.523438zm0 0"/><path d="m427.640625 242.472656-17.199219-17.203125-10.613281 10.613281 35.316406 35.3125 35.316407-35.3125-10.613282-10.613281-17.199218 17.203125v-142.4375h-59.519532v15.003906h44.511719zm0 0"/><path d="m52.515625 216.570312h15.007813v15.007813h-15.007813zm0 0"/><path d="m67.523438 115.039062h38.40625l-17.203126 17.199219 10.609376 10.613281 35.316406-35.316406-35.316406-35.316406-10.609376 10.613281 17.203126 17.203125h-53.414063v101.53125h15.007813zm0 0"/><path d="m52.515625 246.582031h15.007813v15.003907h-15.007813zm0 0"/><path d="m256.085938 215.070312c59.292968 0 107.535156-48.238281 107.535156-107.535156 0-19.355468-5.203125-38.335937-15.042969-54.882812l-12.898437 7.667968c8.460937 14.230469 12.933593 30.558594 12.9375 47.214844 0 51.023438-41.511719 92.53125-92.53125 92.53125-51.023438 0-92.53125-41.507812-92.53125-92.53125 0-51.019531 41.507812-92.53125 92.53125-92.53125 18.285156 0 35.96875 5.324219 51.128906 15.398438l8.304687-12.496094c-17.632812-11.714844-38.183593-17.90625-59.433593-17.90625-59.296876 0-107.535157 48.242188-107.535157 107.535156 0 59.296875 48.238281 107.535156 107.535157 107.535156zm0 0"/><path d="m327.722656 48.964844 11.613282-9.503906c-3.394532-4.144532-7.128907-8.070313-11.101563-11.667969l-10.070313 11.125c3.421876 3.097656 6.636719 6.476562 9.558594 10.046875zm0 0"/><path d="m286.59375 173.058594v-35.011719h35.011719v-61.019531h-35.011719v-35.011719h-61.019531v35.011719h-35.011719v61.019531h35.011719v35.011719zm-81.027344-50.019532v-31.007812h35.011719v-35.011719h31.011719v35.011719h35.011718v31.007812h-35.011718v35.011719h-31.011719v-35.011719zm0 0"/><path d="m431.890625 338.386719-9.355469 11.730469c11.375 9.074218 22.425782 18.796874 32.847656 28.898437l10.441407-10.777344c-10.765625-10.429687-22.179688-20.476562-33.933594-29.851562zm0 0"/><path d="m398.871094 332.519531c3.976562 2.742188 8.003906 5.632813 11.980468 8.589844l8.953126-12.039063c-4.113282-3.0625-8.292969-6.058593-12.410157-8.898437zm0 0"/><path d="m256.085938 346.113281c15.167968 0 27.507812 12.34375 27.507812 27.511719h15.003906c0-23.445312-19.070312-42.515625-42.511718-42.515625zm0 0"/></svg>