<svg height="512pt" viewBox="0 0 512 512" width="512pt" xmlns="http://www.w3.org/2000/svg"><path d="m15.03125 141.777344v-13.527344h15.027344v13.527344c0 62.152344 50.566406 112.71875 112.71875 112.71875 30.195312 0 58.558594-11.78125 79.863281-33.171875l-10.648437-10.605469c-18.464844 18.539062-43.046876 28.75-69.214844 28.75-53.867188 0-97.6875-43.824219-97.6875-97.691406v-28.554688h-14.027344v-70.640625c0-6.90625 5.617188-12.523437 12.523438-12.523437h22.542968v15.03125h32.5625c12.429688 0 22.546875-10.113282 22.546875-22.546875 0-12.429688-10.117187-22.542969-22.546875-22.542969h-32.5625v15.03125h-22.542968c-15.195313 0-27.554688 12.359375-27.554688 27.550781v70.640625h-16.03125v28.554688c0 24.945312 6.53125 49.503906 18.886719 71.015625l13.035156-7.488281c-11.050781-19.234376-16.890625-41.203126-16.890625-63.527344zm66.128906-126.746094h17.53125c4.144532 0 7.515625 3.367188 7.515625 7.511719s-3.371093 7.515625-7.515625 7.515625h-17.53125zm0 0"/><path d="m285.558594 141.777344v-28.554688h-16.03125v-70.640625c0-15.191406-12.363282-27.550781-27.554688-27.550781h-22.542968v-15.03125h-32.566407c-12.429687 0-22.542969 10.113281-22.542969 22.542969 0 12.433593 10.113282 22.546875 22.542969 22.546875h32.566407v-15.03125h22.542968c6.90625 0 12.523438 5.617187 12.523438 12.523437v70.640625h-14.027344v28.554688c0 21.234375-6.695312 41.425781-19.359375 58.386718l12.042969 8.992188c14.617187-19.578125 22.347656-42.878906 22.347656-67.378906v-13.527344h15.027344v13.527344c0 70.441406-57.308594 127.75-127.75 127.75-40.5625 0-79.113282-19.5625-103.121094-52.335938l-12.125 8.882813c26.828125 36.621093 69.910156 58.480469 115.246094 58.480469 78.730468 0 142.78125-64.050782 142.78125-142.777344zm-81.160156-111.71875h-17.535157c-4.140625 0-7.511719-3.371094-7.511719-7.515625s3.371094-7.511719 7.511719-7.511719h17.535157zm0 0"/><path d="m507.464844 211.566406-14.015625 5.421875c2.335937 6.042969 3.523437 12.425781 3.523437 18.972657 0 29.003906-23.597656 52.601562-52.605468 52.601562-29.003907 0-52.601563-23.597656-52.601563-52.601562 0-29.003907 23.597656-52.601563 52.601563-52.601563 8.066406 0 15.800781 1.773437 22.988281 5.273437l6.578125-13.515624c-9.257813-4.503907-19.203125-6.789063-29.566406-6.789063-37.292969 0-67.632813 30.339844-67.632813 67.632813 0 37.292968 30.339844 67.632812 67.632813 67.632812 37.292968 0 67.632812-30.339844 67.632812-67.632812 0-8.40625-1.523438-16.613282-4.535156-24.394532zm0 0"/><path d="m487.226562 205.457031 12.238282-8.726562c-3.273438-4.585938-7.109375-8.757813-11.410156-12.398438l-9.714844 11.46875c3.351562 2.835938 6.339844 6.085938 8.886718 9.65625zm0 0"/><path d="m444.367188 198.386719c-20.71875 0-37.574219 16.855469-37.574219 37.574219s16.855469 37.574218 37.574219 37.574218 37.574218-16.855468 37.574218-37.574218-16.855468-37.574219-37.574218-37.574219zm0 60.117187c-12.429688 0-22.542969-10.113281-22.542969-22.542968 0-12.429688 10.113281-22.542969 22.542969-22.542969 12.429687 0 22.542968 10.113281 22.542968 22.542969 0 12.429687-10.113281 22.542968-22.542968 22.542968zm0 0"/><path d="m436.851562 420.320312c0 17.957032-14.605468 32.5625-32.5625 32.5625-17.957031 0-32.5625-14.605468-32.5625-32.5625v-31.058593c0-32.875-26.742187-59.617188-59.617187-59.617188-32.871094 0-59.617187 26.742188-59.617187 59.617188v56.609375c0 28.175781-22.921876 51.097656-51.097657 51.097656s-51.101562-22.921875-51.101562-51.097656v-114.722656h-15.027344v114.722656c0 36.464844 29.664063 66.128906 66.128906 66.128906 36.464844 0 66.128907-29.664062 66.128907-66.128906v-56.609375c0-24.585938 20-44.589844 44.585937-44.589844s44.585937 20.003906 44.585937 44.589844v31.058593c0 26.242188 21.351563 47.59375 47.59375 47.59375 26.242188 0 47.59375-21.351562 47.59375-47.59375v-40.078124h-15.03125zm0 0"/><path d="m436.851562 320.125h15.03125v15.03125h-15.03125zm0 0"/><path d="m436.851562 350.183594h15.03125v15.03125h-15.03125zm0 0"/><path d="m135.265625 301.089844h15.027344v15.027344h-15.027344zm0 0"/><path d="m436.851562 228.445312h15.03125v15.03125h-15.03125zm0 0"/></svg>